<?xml version="1.0" standalone="no"?>
<!DOCTYPE svg PUBLIC "-//W3C//DTD SVG 1.1//EN" "http://www.w3.org/Graphics/SVG/1.1/DTD/svg11.dtd" >
<svg xmlns="http://www.w3.org/2000/svg">
<metadata>Generated by IcoMoon</metadata>
<defs>
<font id="itaufonts_master_24px_v1" horiz-adv-x="1024">
<font-face units-per-em="1024" ascent="960" descent="-64" />
<missing-glyph horiz-adv-x="1024" />
<glyph unicode="&#x20;" horiz-adv-x="512" d="" />
<glyph unicode="&#xe900;" glyph-name="itaufonts_5_servicos" d="M644.267 350.294c0-53.013-19.627-101.12-55.253-135.253-34.453-33.067-81.387-51.2-132.053-51.2-59.093 0-105.92 19.413-128 35.947l-2.56 1.92 19.307 38.613 3.627-2.453c22.72-15.467 63.68-32 110.187-32 38.4 0 73.493 14.187 98.987 39.893 24.853 25.173 38.4 59.52 37.973 96.96-0.96 85.547-56.96 134.507-153.707 134.507-28.693 0-55.467-2.027-77.333-5.867l-5.12-0.853 36.267 254.827h243.413v-42.773h-205.867l-25.493-166.613c11.413 2.027 24.427 3.307 45.653 3.307 37.227 0 70.933-7.787 103.040-23.893 42.133-20.587 86.933-69.44 86.933-145.067z" />
<glyph unicode="&#xe901;" glyph-name="itaufonts_50_cinema" d="M597.333 682.667c0 47.147-38.187 85.333-85.333 85.333s-85.333-38.187-85.333-85.333 38.187-85.333 85.333-85.333 85.333 38.187 85.333 85.333zM469.333 682.667c0 23.573 19.093 42.667 42.667 42.667s42.667-19.093 42.667-42.667-19.093-42.667-42.667-42.667-42.667 19.093-42.667 42.667zM768 426.667c47.147 0 85.333 38.187 85.333 85.333s-38.187 85.333-85.333 85.333c-47.147 0-85.333-38.187-85.333-85.333s38.187-85.333 85.333-85.333zM768 554.667c23.573 0 42.667-19.093 42.667-42.667s-19.093-42.667-42.667-42.667-42.667 19.093-42.667 42.667 19.093 42.667 42.667 42.667zM682.667 128c47.147 0 85.333 38.187 85.333 85.333s-38.187 85.333-85.333 85.333-85.333-38.187-85.333-85.333c0-47.147 38.187-85.333 85.333-85.333zM682.667 256c23.573 0 42.667-19.093 42.667-42.667s-19.093-42.667-42.667-42.667-42.667 19.093-42.667 42.667c0 23.573 19.093 42.667 42.667 42.667zM341.333 298.667c-47.147 0-85.333-38.187-85.333-85.333s38.187-85.333 85.333-85.333 85.333 38.187 85.333 85.333c0 47.147-38.187 85.333-85.333 85.333zM341.333 170.667c-23.573 0-42.667 19.093-42.667 42.667s19.093 42.667 42.667 42.667 42.667-19.093 42.667-42.667c0-23.573-19.093-42.667-42.667-42.667zM341.333 512c0 47.147-38.187 85.333-85.333 85.333s-85.333-38.187-85.333-85.333 38.187-85.333 85.333-85.333 85.333 38.187 85.333 85.333zM213.333 512c0 23.573 19.093 42.667 42.667 42.667s42.667-19.093 42.667-42.667-19.093-42.667-42.667-42.667-42.667 19.093-42.667 42.667zM960 42.667h-261.76c142.293 69.12 240.427 215.147 240.427 384 0 235.627-191.040 426.667-426.667 426.667s-426.667-191.040-426.667-426.667 191.040-426.667 426.667-426.667h448c11.733 0 21.333 9.6 21.333 21.333s-9.6 21.333-21.333 21.333zM240.427 155.094c-35.307 35.307-62.933 76.373-82.347 122.027-19.947 47.36-30.080 97.707-30.080 149.547s10.133 102.187 30.187 149.44c19.307 45.76 47.040 86.827 82.347 122.027s76.373 62.933 122.027 82.347c47.253 20.053 97.6 30.187 149.44 30.187s102.187-10.133 149.44-30.187c45.76-19.307 86.827-47.040 122.027-82.347 35.307-35.307 62.933-76.373 82.347-122.027 20.053-47.253 30.187-97.6 30.187-149.44s-10.133-102.187-30.187-149.44c-19.307-45.76-47.040-86.827-82.347-122.027-35.307-35.307-76.373-62.933-122.027-82.347-47.253-20.053-97.6-30.187-149.44-30.187s-102.187 10.133-149.44 30.187c-45.76 19.307-86.827 47.040-122.133 82.24z" />
<glyph unicode="&#xe902;" glyph-name="itaufonts_50_futebol" d="M490.667 853.334c-223.893 0-405.333-181.44-405.333-405.333s181.44-405.333 405.333-405.333 405.333 181.44 405.333 405.333-181.44 405.333-405.333 405.333zM852.267 475.734l-74.56 67.413 20.16 97.6c10.24-16.427 19.307-33.6 26.88-51.52 15.467-36.267 24.64-74.347 27.52-113.493zM763.733 686.614l-27.84-134.613-115.52-37.12-108.16 78.507 0.427 120 119.787 68.587c42.987-18.24 81.6-44.373 114.773-77.547 5.653-5.76 11.2-11.733 16.533-17.813zM578.027 800.107l-86.827-49.707-87.573 49.813c28.267 6.933 57.387 10.56 87.147 10.56 29.653-0.107 58.88-3.627 87.253-10.667zM349.013 781.974l120.747-68.587-0.427-121.387-106.667-77.44-116.907 38.293-28.16 133.867c5.333 6.080 10.88 12.053 16.64 17.813 33.173 33.067 71.787 59.2 114.773 77.44zM183.467 640.96l20.373-96.853-74.773-68.053c2.987 39.040 12.16 77.013 27.413 113.173 7.68 18.027 16.64 35.307 26.987 51.733zM129.173 418.347l103.253 93.973 120.96-39.68 40.427-124.16-73.813-100.907-141.227 15.253c-8.427 14.080-15.787 28.8-22.293 44.053-15.040 35.627-24.213 72.96-27.307 111.467zM234.24 191.574c-7.893 7.893-15.467 16.213-22.613 24.747l103.787-11.2 42.987-94.933c-2.987 1.173-5.973 2.347-8.96 3.627-43.093 18.24-81.92 44.373-115.2 77.76zM412.907 93.654l-58.347 128.747 77.227 105.493h122.027l77.227-105.493-57.92-127.787c-26.88-6.293-54.4-9.387-82.453-9.387-26.453 0.107-52.373 2.88-77.76 8.427zM631.787 113.814c-1.28-0.533-2.56-1.067-3.733-1.493l42.027 92.8 99.093 10.667c-7.040-8.32-14.4-16.427-22.187-24.213-33.173-33.387-72-59.52-115.2-77.76zM802.24 262.294l-136.64-14.72-75.413 102.933 39.893 122.667 118.933 38.187 102.933-93.12c-3.093-38.507-12.267-75.84-27.307-111.467-6.293-15.36-13.867-30.187-22.4-44.48z" />
<glyph unicode="&#xe903;" glyph-name="itaufonts_50_teatro" d="M273.6 218.56c10.56-2.667 18.667-4.053 25.6-5.227v-42.667c-100.8 15.787-215.040 73.707-215.040 225.387l1.173 398.080c0.64 9.92 8.427 17.067 17.067 17.067 2.133 0 4.373-0.427 6.507-1.387 38.080-16.747 101.44-44.587 232.427-41.813h43.2v-42.667h-43.2c-61.227 0-112.427 3.52-160.107 14.827-20.8 4.907-37.547 10.347-52.693 15.893v-360.107c0-35.627 5.76-66.667 20.48-92.373 12.48-21.76 30.4-40.32 53.44-55.147 20.373-13.12 44.267-23.147 71.147-29.867zM938.347 696l-89.6-418.56c-34.133-164.373-172.16-222.293-302.933-192.107-85.333 19.733-240 104.427-197.44 300.693l94.827 409.813c2.56 9.173 10.027 14.827 17.493 14.827 3.2 0 6.293-0.96 9.067-3.2 33.387-25.813 57.493-53.013 170.133-85.333 136.64-39.253 259.307-9.28 279.040-4.587 1.173 0.32 2.453 0.427 3.627 0.427 10.027 0 17.707-10.133 15.787-21.973zM889.387 668.16c-20.907-3.2-136-16.107-249.387 11.307-88.213 21.333-149.333 61.333-162.667 70.187l-86.72-372.8c-33.28-149.973 87.040-223.787 153.387-241.387 150.4-39.893 233.6 39.467 263.68 150.933l81.707 381.76zM256 576c0-11.733 9.6-21.333 21.333-21.333s21.333 9.6 21.333 21.333-9.6 21.333-21.333 21.333-21.333-9.6-21.333-21.333zM573.867 554.774c13.44-1.387 24.747 9.92 23.36 23.36-0.96 10.027-9.067 18.027-19.093 19.093-13.44 1.387-24.747-9.92-23.36-23.36 0.96-10.027 9.067-18.133 19.093-19.093zM746.667 554.667c-11.733 0-21.333-9.6-21.333-21.333s9.6-21.333 21.333-21.333 21.333 9.6 21.333 21.333-9.6 21.333-21.333 21.333zM213.867 341.227c33.6 27.84 61.333 43.52 85.333 42.773v42.667c-25.28-2.453-53.653-13.12-85.333-42.773v-42.667zM595.733 313.28c-96.213 22.613-148.16 85.333-148.16 85.333l-13.867-50.987c0 0 39.893-49.28 132.053-77.227 92.587-28.16 172.8-5.333 172.8-5.333l13.867 51.307c0 0-72.213-23.040-156.693-3.093z" />
<glyph unicode="&#xe904;" glyph-name="itaufonts_acoes" d="M896 746.667v-213.333c0-11.733-9.6-21.333-21.333-21.333s-21.333 9.6-21.333 21.333v192h-192c-11.733 0-21.333 9.6-21.333 21.333s9.6 21.333 21.333 21.333h213.333c11.733 0 21.333-9.6 21.333-21.333zM774.293 676.374l-155.627-155.52-112.96 112.853c-4.693 4.693-11.307 6.933-17.92 6.080s-12.373-4.8-15.68-10.56l-160.64-281.173-67.307 33.6c-9.813 4.907-21.76 1.6-27.627-7.787l-85.333-170.667c-6.293-10.027-3.093-22.933 6.827-29.44 10.773-7.040 24.427-2.133 29.44 6.827l74.987 154.347 67.947-34.027c10.133-5.013 22.4-1.387 28.053 8.533l156.8 274.453 108.267-108.267c8.32-8.32 21.867-8.32 30.187 0l170.667 170.667c8.32 8.32 8.32 21.867 0 30.187s-21.76 8.32-30.080-0.107z" />
<glyph unicode="&#xe905;" glyph-name="itaufonts_agencia_personalite" d="M980.373 323.947c-2.453 7.893-9.28 13.653-17.493 14.827l-121.813 16.533-54.187 102.613c-3.733 7.040-10.987 11.413-18.88 11.413s-15.147-4.373-18.88-11.413l-54.187-102.613-121.813-16.533c-8.213-1.067-15.040-6.933-17.493-14.827s-0.107-16.533 5.973-22.080l87.253-79.467-20.48-111.893c-1.493-7.893 1.707-16 8.107-20.907s15.040-5.653 22.293-2.133l109.227 53.76 109.227-53.76c2.987-1.493 6.187-2.24 9.387-2.133 4.587 0 9.067 1.493 12.907 4.373 6.4 4.907 9.6 12.907 8.107 20.907l-20.48 111.893 87.253 79.467c6.080 5.44 8.427 14.080 5.973 21.973zM849.6 245.974c-5.44-4.907-7.893-12.373-6.613-19.627l15.040-81.813-80.64 39.573c-2.987 1.493-6.187 2.133-9.387 2.133s-6.4-0.747-9.387-2.133l-80.64-39.573 15.040 81.813c1.28 7.253-1.173 14.613-6.613 19.627l-62.187 56.747 87.36 11.84c6.827 0.96 12.8 5.12 16 11.2l40.427 76.587 40.427-76.587c3.2-6.080 9.173-10.24 16-11.2l87.36-11.84-62.187-56.747zM490.667 725.334c-82.453 0-149.333-66.88-149.333-149.333s66.88-149.333 149.333-149.333 149.333 66.88 149.333 149.333-66.88 149.333-149.333 149.333zM490.667 469.334c-58.88 0-106.667 47.787-106.667 106.667s47.787 106.667 106.667 106.667 106.667-47.787 106.667-106.667-47.787-106.667-106.667-106.667zM765.227 512c2.027 10.667 2.773 19.307 2.773 26.133 0 36.693-7.253 72.32-21.653 105.813-13.973 32.427-33.92 61.547-59.307 86.613-25.493 25.067-55.147 44.8-88.213 58.56-34.24 14.293-70.613 21.547-108.16 21.547s-73.92-7.253-108.16-21.44c-33.067-13.76-62.72-33.493-88.213-58.56-25.387-25.067-45.44-54.187-59.307-86.613-14.4-33.6-21.653-69.12-21.653-105.92 0-22.613 7.893-64.96 45.333-138.133 25.6-50.027 61.547-107.733 106.773-171.627 47.36-66.56 94.933-125.973 125.227-162.347 26.347 31.68 65.813 80.747 106.667 136.747v-71.253c-58.773-77.013-106.667-131.52-106.667-131.52s-320 364.053-320 538.133 143.253 315.2 320 315.2 320-141.12 320-315.2c0-8.32-0.747-17.067-2.133-26.133h-43.307z" />
<glyph unicode="&#xe906;" glyph-name="itaufonts_agencia" d="M490.667 853.334c-176.747 0-320-141.12-320-315.2s320-538.133 320-538.133 320 364.053 320 538.133c0 174.080-143.253 315.2-320 315.2zM616.32 229.12c-47.36-66.88-95.253-126.507-125.653-163.093-30.187 36.48-77.867 95.787-125.227 162.453-45.227 63.787-81.173 121.6-106.773 171.627-37.44 73.173-45.333 115.413-45.333 138.027 0 36.693 7.253 72.32 21.653 105.813 13.973 32.427 33.92 61.547 59.307 86.613 25.493 25.067 55.147 44.8 88.213 58.56 34.24 14.293 70.613 21.547 108.16 21.547s73.92-7.253 108.16-21.44c33.067-13.76 62.72-33.493 88.213-58.56 25.387-25.067 45.44-54.187 59.307-86.613 14.4-33.493 21.653-69.12 21.653-105.813 0-22.613-7.787-64.747-45.12-137.813-25.6-50.027-61.44-107.627-106.56-171.307zM490.667 725.334c-82.453 0-149.333-66.88-149.333-149.333s66.88-149.333 149.333-149.333 149.333 66.88 149.333 149.333-66.88 149.333-149.333 149.333zM490.667 469.334c-58.88 0-106.667 47.787-106.667 106.667s47.787 106.667 106.667 106.667 106.667-47.787 106.667-106.667-47.787-106.667-106.667-106.667z" />
<glyph unicode="&#xe907;" glyph-name="itaufonts_agil_descomplic" d="M906.667 562.454c-20.48 48.427-49.813 91.84-87.040 129.173-37.333 37.333-80.747 66.667-129.173 87.040-50.133 21.227-103.36 31.893-158.187 31.893h-324.267c-67.627 0-122.667-40.107-122.667-107.733 0-106.347 128-106.133 128-106.133h21.547c-13.653-17.067-21.547-38.827-21.547-64.533 0-79.893 72.213-99.627 108.16-104.533-14.4-17.28-22.827-39.573-22.827-66.133 0-106.347 128-106.133 128-106.133l259.2 0.533c21.76 0 39.467-27.307 39.467-49.067v-62.933c0-56.427 50.24-101.333 106.667-101.333s106.667 44.907 106.667 101.333v260.373c0 54.827-10.773 108.053-32 158.187zM896 144c0-32.96-31.040-58.667-64-58.667s-64 25.707-64 58.667v62.933c0 45.333-36.8 91.733-82.133 91.733h-264.533c-44.16 0-80 18.773-80 62.933 0 40.747 30.613 61.76 70.080 64.64l122.667 0.427c9.6 0 20.587 4.267 20.587 21.333 0 11.733-8.853 21.333-20.587 21.333h-198.080c-44.16 0-80 18.773-80 62.933 0 41.173 31.36 62.187 71.36 64.747l121.28 0.32c9.6 0 20.587 4.267 20.587 21.333 0 11.733-8.853 21.333-20.587 21.333h-240.64c-44.16 0-80 18.773-80 62.933s35.84 65.067 80 65.067h324.267c97.173 0 188.48-37.867 257.173-106.56s106.56-160 106.56-257.173v-260.267zM741.973 570.24c44.267-44.373 68.693-103.253 68.693-165.973v-85.333c0-11.733-9.6-21.333-21.333-21.333s-21.333 9.6-21.333 21.333v85.333c0 105.92-86.080 192-192 192-11.733 0-21.333 9.6-21.333 21.333s9.6 21.333 21.333 21.333c62.72 0 121.6-24.427 165.973-68.693z" />
<glyph unicode="&#xe908;" glyph-name="itaufonts_ajuda" d="M554.667 64c0-35.307-28.693-64-64-64s-64 28.693-64 64 28.693 64 64 64 64-28.693 64-64zM522.667 245.334c-0.32 71.36 16.747 89.493 54.187 129.067 12.693 13.44 27.093 28.693 43.52 48.747 40.64 48.853 66.773 86.507 84.8 121.813 20.8 40.747 30.933 79.893 30.933 119.68 0 46.933-20.587 93.547-56.533 128-28.907 27.733-81.387 60.693-167.573 60.693-46.293 0-96.107-13.653-136.533-37.333-14.72-8.64-19.947-27.307-12.053-42.453l0.427-0.853c4.053-7.787 10.987-13.333 19.307-15.787s17.173-1.387 24.747 2.88c33.6 19.093 70.613 29.547 104.107 29.547 46.72 0 86.613-12.16 115.2-35.2 29.333-23.573 44.8-57.387 44.8-97.92 0-74.24-45.547-133.227-109.867-208.533l-0.213-0.213c-12.587-15.467-24.213-28.8-34.56-40.533-42.88-48.853-68.693-78.293-68.8-161.6l-0.213-53.333h64.32v53.333z" />
<glyph unicode="&#xe909;" glyph-name="itaufonts_alimentacao" d="M469.333 832v-170.667c0-82.347-66.987-149.333-149.333-149.333s-149.333 66.987-149.333 149.333v170.667c0 11.733 9.6 21.333 21.333 21.333s21.333-9.6 21.333-21.333v-170.667c0-51.52 36.693-94.613 85.333-104.533v275.2c0 11.733 9.6 21.333 21.333 21.333s21.333-9.6 21.333-21.333v-275.2c48.64 9.92 85.333 53.013 85.333 104.533v170.667c0 11.733 9.6 21.333 21.333 21.333s21.333-9.6 21.333-21.333zM362.667 469.334c-11.733 0-21.333-9.6-21.333-21.333v-384c0-11.733-9.6-21.333-21.333-21.333s-21.333 9.6-21.333 21.333v384c0 11.733-9.6 21.333-21.333 21.333s-21.333-9.6-21.333-21.333v-384c0-35.307 28.693-64 64-64s64 28.693 64 64v384c0 11.733-9.6 21.333-21.333 21.333zM746.667 341.334c-11.733 0-21.333-9.6-21.333-21.333v-256c0-11.733-9.6-21.333-21.333-21.333s-21.333 9.6-21.333 21.333v256c0 11.733-9.6 21.333-21.333 21.333s-21.333-9.6-21.333-21.333v-256c0-35.307 28.693-64 64-64s64 28.693 64 64v256c0 11.733-9.6 21.333-21.333 21.333zM653.227 384c-5.76 0-11.413 2.347-15.36 6.613-53.653 55.893-83.2 107.947-83.2 185.387 0 60.16 17.813 118.080 51.413 167.573 32.853 48.32 78.613 85.76 132.373 108.16 6.613 2.773 14.080 2.027 20.053-1.92s9.493-10.667 9.493-17.707v-426.773c0-11.733-9.6-21.333-21.333-21.333h-93.44zM662.507 426.667h62.827v371.093c-33.387-19.307-61.973-45.867-83.947-78.187-28.8-42.453-44.053-92.16-44.053-143.68 0-63.253 23.040-102.187 65.173-149.227z" />
<glyph unicode="&#xe90a;" glyph-name="itaufonts_alvo" d="M512 853.334c-235.627 0-426.667-191.040-426.667-426.667s191.040-426.667 426.667-426.667 426.667 191.040 426.667 426.667-191.040 426.667-426.667 426.667zM783.573 155.094c-35.307-35.307-76.373-62.933-122.027-82.347-47.36-19.947-97.707-30.080-149.547-30.080s-102.187 10.133-149.44 30.187c-45.76 19.307-86.827 47.040-122.027 82.347s-62.933 76.373-82.347 122.027c-20.053 47.253-30.187 97.6-30.187 149.44s10.133 102.187 30.187 149.44c19.307 45.76 47.040 86.827 82.347 122.027s76.373 62.933 122.027 82.347c47.253 20.053 97.6 30.187 149.44 30.187s102.187-10.133 149.44-30.187c45.76-19.307 86.827-47.040 122.027-82.347s62.933-76.373 82.347-122.027c20.053-47.253 30.187-97.6 30.187-149.44s-10.133-102.187-30.187-149.44c-19.307-45.76-47.040-86.827-82.24-122.133zM512 682.667c-141.333 0-256-114.667-256-256s114.667-256 256-256 256 114.667 256 256-114.667 256-256 256zM662.827 275.84c-40.32-40.32-93.867-62.507-150.827-62.507s-110.507 22.187-150.827 62.507-62.507 93.867-62.507 150.827 22.187 110.507 62.507 150.827 93.867 62.507 150.827 62.507 110.507-22.187 150.827-62.507 62.507-93.867 62.507-150.827-22.187-110.507-62.507-150.827zM512 512c-47.147 0-85.333-38.187-85.333-85.333s38.187-85.333 85.333-85.333 85.333 38.187 85.333 85.333-38.187 85.333-85.333 85.333zM512 384c-23.573 0-42.667 19.093-42.667 42.667s19.093 42.667 42.667 42.667 42.667-19.093 42.667-42.667-19.093-42.667-42.667-42.667z" />
<glyph unicode="&#xe90b;" glyph-name="itaufonts_antecip_de_recebiveis" d="M152.64 705.067l274.027 127.787v-47.040l-256-119.36 256-549.013v-100.907l-294.613 631.787c-10.027 21.44-0.747 46.827 20.587 56.747zM85.333 110.187l98.133 269.547-25.493 54.72-112.747-309.76c-8.107-22.187 3.307-46.613 25.493-54.72l309.76-112.64-25.493 54.72-269.653 98.133zM512 810.667h341.333v-487.573c14.72-5.227 29.013-11.52 42.667-18.667v506.24c0 23.573-19.093 42.667-42.667 42.667h-341.333c-23.573 0-42.667-19.093-42.667-42.667v-629.547c12.053 20.907 26.347 40.213 42.667 57.813v571.733zM810.667 256.854c-127.573 0-231.36-101.76-234.56-228.48l-63.68 50.027c-9.813 9.813-25.813 9.813-35.733 0s-9.813-25.813 0-35.733l91.2-72.853c16.64-16.64 43.627-16.64 60.373 0l90.027 72.853c9.707 9.707 10.347 25.493 1.067 35.52-9.813 10.56-26.24 10.773-36.373 0.64l-64.32-51.307c2.773 103.573 87.68 186.667 191.893 186.667 106.027 0 192-85.973 192-192 0-0.107 0-0.107 0-0.213 0-11.627 9.28-21.12 20.907-21.12h0.853c11.52 0 20.907 9.28 20.907 20.693 0 0.213 0 0.427 0 0.64 0.107 129.6-104.96 234.667-234.56 234.667z" />
<glyph unicode="&#xe90c;" glyph-name="itaufonts_aplicacao" d="M217.173 417.494c6.72 9.707 19.947 12.053 29.653 5.44l222.507-147.52v556.587c0 11.733 9.6 21.333 21.333 21.333s21.333-9.6 21.333-21.333v-556.587l222.507 147.52c9.707 6.72 22.933 4.267 29.653-5.44s4.267-22.933-5.44-29.653l-256-170.667c0 0 0 0 0 0-0.427-0.32-0.96-0.64-1.387-0.853 0 0 0 0 0 0-0.427-0.213-0.853-0.427-1.28-0.64-0.107-0.107-0.32-0.107-0.427-0.213-0.32-0.107-0.64-0.32-0.853-0.427s-0.32-0.107-0.533-0.213-0.533-0.213-0.853-0.32c-0.427-0.107-0.747-0.213-1.173-0.32-0.213-0.107-0.427-0.107-0.64-0.213s-0.533-0.107-0.747-0.213c-0.213 0-0.427-0.107-0.64-0.107s-0.533-0.107-0.747-0.107c-0.213 0-0.533-0.107-0.747-0.107s-0.427 0-0.64-0.107c-0.427 0-0.853 0-1.173 0 0 0-0.107 0-0.107 0s0 0 0 0 0 0 0 0-0.107 0-0.107 0c-0.427 0-0.853 0-1.173 0-0.213 0-0.427 0-0.64 0.107-0.213 0-0.533 0-0.747 0.107-0.213 0-0.533 0.107-0.747 0.107s-0.427 0.107-0.64 0.107c-0.213 0-0.533 0.107-0.747 0.213s-0.427 0.107-0.64 0.213-0.747 0.213-1.173 0.32c-0.32 0.107-0.533 0.213-0.853 0.32-0.213 0.107-0.32 0.107-0.533 0.213-0.32 0.107-0.64 0.213-0.853 0.427-0.107 0.107-0.32 0.107-0.427 0.213-0.427 0.213-0.853 0.427-1.28 0.64 0 0 0 0 0 0-0.533 0.32-0.96 0.533-1.387 0.853 0 0 0 0 0 0l-256 170.667c-10.027 6.613-12.373 19.947-5.653 29.653zM872.533 213.227c-10.987-1.067-19.2-10.667-19.2-21.76v-148.8h-725.333v148.8c0 11.093-8.213 20.693-19.2 21.76-12.693 1.28-23.467-8.853-23.467-21.227v-149.333c0-23.573 19.093-42.667 42.667-42.667h725.333c23.573 0 42.667 19.093 42.667 42.667v0 149.333c0 12.373-10.773 22.507-23.467 21.227z" />
<glyph unicode="&#xe90d;" glyph-name="itaufonts_aplicativos" d="M640 853.334h-256c-70.72 0-128-57.28-128-128v-597.333c0-70.72 57.28-128 128-128h256c70.72 0 128 57.28 128 128v597.333c0 70.72-57.28 128-128 128zM725.333 128c0-47.147-38.187-85.333-85.333-85.333h-256c-47.147 0-85.333 38.187-85.333 85.333v85.333h426.667v-85.333zM725.333 256h-426.667v426.667h426.667v-426.667zM298.667 725.334c0 47.147 38.187 85.333 85.333 85.333h256c47.147 0 85.333-38.187 85.333-85.333h-426.667zM469.333 128c0 23.573 19.093 42.667 42.667 42.667s42.667-19.093 42.667-42.667c0-23.573-19.093-42.667-42.667-42.667s-42.667 19.093-42.667 42.667zM405.333 554.667h-42.667c-11.733 0-21.333 9.6-21.333 21.333v42.667c0 11.733 9.6 21.333 21.333 21.333h42.667c11.733 0 21.333-9.6 21.333-21.333v-42.667c0-11.733-9.6-21.333-21.333-21.333zM533.333 554.667h-42.667c-11.733 0-21.333 9.6-21.333 21.333v42.667c0 11.733 9.6 21.333 21.333 21.333h42.667c11.733 0 21.333-9.6 21.333-21.333v-42.667c0-11.733-9.6-21.333-21.333-21.333zM661.333 554.667h-42.667c-11.733 0-21.333 9.6-21.333 21.333v42.667c0 11.733 9.6 21.333 21.333 21.333h42.667c11.733 0 21.333-9.6 21.333-21.333v-42.667c0-11.733-9.6-21.333-21.333-21.333zM405.333 426.667h-42.667c-11.733 0-21.333 9.6-21.333 21.333v42.667c0 11.733 9.6 21.333 21.333 21.333h42.667c11.733 0 21.333-9.6 21.333-21.333v-42.667c0-11.733-9.6-21.333-21.333-21.333zM533.333 426.667h-42.667c-11.733 0-21.333 9.6-21.333 21.333v42.667c0 11.733 9.6 21.333 21.333 21.333h42.667c11.733 0 21.333-9.6 21.333-21.333v-42.667c0-11.733-9.6-21.333-21.333-21.333z" />
<glyph unicode="&#xe90e;" glyph-name="itaufonts_aporte_de_capital" d="M784 597.334l-101.333-35.947v-220.053l-73.493-317.76c-7.253-14.507-21.973-23.573-38.187-23.573h-144.32c-23.573 0-42.667 19.093-42.667 42.667v39.573c-26.667 32.96-42.667 74.987-42.667 120.64 0 66.56 33.92 125.227 85.333 159.68v234.773c0 47.147 38.187 85.333 85.333 85.333v0c47.147 0 85.333-38.187 85.333-85.333v-192c0-11.733-9.6-21.333-21.333-21.333s-21.333 9.6-21.333 21.333v192c0 23.573-19.093 42.667-42.667 42.667s-42.667-19.093-42.667-42.667v-259.413c-50.453-24-85.333-75.413-85.333-134.933 0-40.64 16.32-77.547 42.667-104.427v-55.893h149.333l64 298.667v250.133l129.387 45.973-87.573 258.56-468.48-168.107 82.773-258.56 87.893 31.253v-45.227l-73.28-26.027c-22.187-8.107-46.613 3.307-54.72 25.493l-82.773 258.56c-8.107 22.187 3.307 46.613 25.493 54.72l468.48 168c22.187 8.107 46.613-3.307 54.72-25.493l87.573-258.56c8-22.187-3.413-46.613-25.493-54.72z" />
<glyph unicode="&#xe90f;" glyph-name="itaufonts_ar_condicionado" d="M896 277.334c0 11.733-9.6 21.333-21.333 21.333h-128c-0.427 0-0.853 0-1.173-0.107l-105.493 66.133v123.413l105.493 66.133c0.427 0 0.747-0.107 1.173-0.107h128c11.733 0 21.333 9.6 21.333 21.333s-9.6 21.333-21.333 21.333h-61.227l72.107 45.227c10.027 6.293 13.013 19.413 6.72 29.44s-19.413 13.013-29.44 6.72l-79.36-49.707 25.707 67.413c4.16 10.987-1.28 23.36-12.373 27.52-10.987 4.16-23.36-1.28-27.52-12.373l-45.867-120.213-105.6-66.24-105.813 60.587v69.76l81.707 122.667c6.507 9.813 3.84 23.040-5.867 29.547-9.813 6.507-23.040 3.84-29.547-5.867l-46.293-69.333v100.053c0 11.733-9.6 21.333-21.333 21.333s-21.333-9.6-21.333-21.333v-100.16l-46.293 69.333c-6.507 9.813-19.733 12.48-29.547 5.867-9.813-6.507-12.48-19.733-5.867-29.547l81.707-122.667v-69.76l-106.24-60.693-105.813 66.347-45.867 120.213c-4.16 10.987-16.533 16.533-27.52 12.373s-16.533-16.533-12.373-27.52l25.707-67.413-79.36 49.707c-10.027 6.293-23.147 3.2-29.44-6.72-6.293-10.027-3.2-23.147 6.72-29.44l72.107-45.227h-61.12c-11.733 0-21.333-9.6-21.333-21.333s9.6-21.333 21.333-21.333h128c0.427 0 0.853 0 1.173 0.107l106.027-66.453v-122.667l-106.027-66.453c-0.427 0-0.747 0.107-1.173 0.107h-128c-11.733 0-21.333-9.6-21.333-21.333s9.6-21.333 21.333-21.333h61.227l-72.107-45.227c-10.027-6.293-12.8-19.307-6.72-29.44 9.6-15.893 22.613-10.56 29.44-6.72l79.36 49.707-25.707-67.413c-4.16-10.987 1.493-22.933 12.373-27.52 12.693-5.44 23.787 1.387 27.52 12.373l45.867 120.213 106.24 66.667 105.813-60.48v-69.76l-81.707-122.667c-6.507-9.813-3.947-23.040 5.867-29.547 13.973-9.28 25.493-0.213 29.547 5.867l46.293 69.333v-100.053c0-11.733 9.6-21.333 21.333-21.333s21.333 9.6 21.333 21.333v100.16l46.293-69.333c4.16-6.187 17.387-14.507 29.547-5.867 9.6 6.72 12.48 19.733 5.867 29.547l-81.707 122.667v69.76l105.493 60.267 106.027-66.453 45.867-120.213c3.2-8.533 14.827-17.173 27.52-12.373 10.987 4.267 16.533 16.533 12.373 27.52l-25.707 67.413 79.36-49.707c8.96-4.587 20.48-7.573 29.44 6.72 6.293 10.027 3.2 23.147-6.72 29.44l-72.32 45.12h61.227c11.733 0 21.333 9.6 21.333 21.333zM597.333 366.080l-106.667-60.907-106.667 60.907v121.173l106.667 60.907 106.667-60.907v-121.173z" />
<glyph unicode="&#xe910;" glyph-name="itaufonts_armario" d="M810.667 853.334h-640c-23.573 0-42.667-19.093-42.667-42.667v-788.8c0-11.52 8.96-21.44 20.587-21.867 12.16-0.427 22.080 9.28 22.080 21.333v64h640v-63.467c0-11.52 8.96-21.44 20.587-21.867 12.16-0.427 22.080 9.28 22.080 21.333v789.333c0 23.573-19.093 42.667-42.667 42.667zM170.667 810.667h298.667v-682.667h-298.667v682.667zM512 128v682.667h298.667v-682.667h-298.667zM426.667 426.667c0-23.573-19.093-42.667-42.667-42.667s-42.667 19.093-42.667 42.667c0 23.573 19.093 42.667 42.667 42.667s42.667-19.093 42.667-42.667zM640 426.667c0-23.573-19.093-42.667-42.667-42.667s-42.667 19.093-42.667 42.667c0 23.573 19.093 42.667 42.667 42.667s42.667-19.093 42.667-42.667z" />
<glyph unicode="&#xe911;" glyph-name="itaufonts_arroba" d="M640.853 144.107c4.16-11.093-1.067-23.467-11.947-28.373-48.533-21.867-98.773-30.4-157.547-30.4-162.773 0-300.693 119.040-300.693 309.653 0 204.373 141.867 373.013 362.24 373.013 172.587 0 277.76-113.067 277.76-278.827 0-148.8-72.427-236.16-165.653-236.16-39.68 0-76.373 26.773-73.387 87.36h-3.947c-34.773-58.56-80.427-87.36-139.947-87.36-57.6 0-107.2 46.613-107.2 125.013 0 123.093 97.28 235.2 235.2 235.2 42.667 0 80.427-8.96 106.133-20.8l-33.707-179.627c-14.933-75.413-2.987-113.173 29.76-114.133 50.56-0.96 110.080 69.44 110.080 184.64 0 143.893-89.28 242.027-243.093 242.027-161.707 0-311.573-122.987-311.573-324.48 0-165.653 122.027-272.853 268.907-272.853 47.040 0 91.307 11.627 128.32 28.693 11.84 5.44 25.813-0.427 30.293-12.587v0zM593.387 553.707c-9.92 2.987-26.773 6.933-49.6 6.933-87.36 0-157.76-82.347-157.76-178.667 0-43.627 21.867-75.413 65.493-75.413 57.6 0 110.187 73.387 121.067 134.933l20.8 112.213z" />
<glyph unicode="&#xe912;" glyph-name="itaufonts_assessoria" d="M390.080 732.48c-8.213 8.427-8.107 21.973 0.32 30.187l86.4 84.587c4.16 4.053 9.493 6.080 14.933 6.080s10.987-2.133 15.147-6.293l84.267-84.587c8.32-8.32 8.32-21.867-0.107-30.187s-21.867-8.32-30.187 0.107l-48.853 49.067v-205.44c0-11.733-9.6-21.333-21.333-21.333s-21.333 9.6-21.333 21.333v204.16l-49.067-48.107c-8.427-8.107-21.973-8-30.187 0.427zM889.707 548.374l-85.013 85.013c-8.213 8.213-21.547 8.747-29.973 0.853-8.853-8.32-9.067-22.187-0.533-30.72l48.96-48.96h-161.493c-7.787 0.213-93.013 1.493-143.467-48.96-11.84-11.84-20.8-25.813-27.627-40.32-6.827 14.507-15.787 28.48-27.627 40.32-50.24 50.56-135.467 49.28-143.253 49.067h-161.493l48.533 48.533c8.213 8.213 8.747 21.547 0.853 29.973-8.32 8.853-22.187 9.067-30.72 0.533l-85.333-85.333c-8.32-8.32-8.32-21.867 0-30.187l85.333-85.333c4.16-4.16 9.6-6.293 15.040-6.293 5.547 0 11.093 2.133 15.253 6.4 8.213 8.427 7.787 22.080-0.533 30.4l-48.427 48.64h161.813c0.213 0 0.533 0 0.747 0s18.773 0.533 42.133-3.84c21.013-3.947 50.24-12.8 69.973-32.64 34.027-34.027 36.267-98.88 36.373-110.613 0-0.853 0-343.573 0-343.573 0-11.733 9.6-21.333 21.333-21.333s21.333 9.6 21.333 21.333c0 0 0 343.573 0 345.173 0.213 23.253 6.827 79.467 36.48 109.12 38.4 38.4 111.467 36.48 112.107 36.48 0.213 0 0.533 0 0.747 0h161.813l-48.96-48.96c-9.92-9.92-8-27.093 5.547-34.24 7.467-3.947 18.667-1.92 24.64 4.053l85.333 85.333c8.533 8.32 8.533 21.76 0.107 30.080z" />
<glyph unicode="&#xe913;" glyph-name="itaufonts_atend_telefonico" d="M426.667 213.334h85.333v-85.333h-85.333v85.333zM298.667 128h85.333v85.333h-85.333v-85.333zM554.667 128h85.333v85.333h-85.333v-85.333zM298.667 256h85.333v85.333h-85.333v-85.333zM426.667 256h85.333v85.333h-85.333v-85.333zM554.667 256h85.333v85.333h-85.333v-85.333zM725.333 469.334c0-23.573-19.093-42.667-42.667-42.667h-85.333c-23.573 0-42.667 19.093-42.667 42.667s-19.093 42.667-42.667 42.667h-85.333c-23.573 0-42.667-19.093-42.667-42.667s-19.093-42.667-42.667-42.667h-85.333c-23.573 0-42.667 19.093-42.667 42.667 0 94.293 76.373 170.667 170.667 170.667h170.667c94.293 0 170.667-76.373 170.667-170.667zM682.667 469.334c0 34.24-13.333 66.347-37.44 90.56s-56.32 37.44-90.56 37.44h-170.667c-34.24 0-66.347-13.333-90.56-37.44s-37.44-56.32-37.44-90.56h85.333c0 47.040 38.293 85.333 85.333 85.333h85.333c47.040 0 85.333-38.293 85.333-85.333h85.333zM1024 768c0-94.293-76.373-170.667-170.667-170.667v-469.333c0-70.4-57.6-128-128-128h-512c-70.4 0-128 57.6-128 128v512c0 70.4 57.6 128 128 128h469.333c0 94.293 76.373 170.667 170.667 170.667s170.667-76.373 170.667-170.667zM810.667 602.667c-59.947 15.467-107.2 62.613-122.667 122.667h-474.667c-22.613 0-44.053-8.96-60.267-25.067s-25.067-37.653-25.067-60.267v-512c0-22.613 8.96-44.053 25.067-60.267s37.653-25.067 60.267-25.067h512c22.613 0 44.053 8.96 60.267 25.067s25.067 37.653 25.067 60.267v474.667zM912.107 736.427c0 23.893-12.267 40.213-27.093 48.64-11.627 7.040-26.24 10.24-40.747 10.24-7.040 0-11.093-0.533-15.467-1.173l7.253 48.64h72.213v21.44h-90.56l-12.267-90.88c7.040 0.853 15.467 2.027 26.24 2.027 37.867 0 54.187-17.493 54.507-41.92 0-25.387-20.693-41.067-44.8-41.067-17.173 0-32.64 5.867-40.427 10.453l-6.4-19.52c9.067-5.867 26.453-11.627 47.147-11.627 41.067 0.107 70.4 27.733 70.4 64.747z" />
<glyph unicode="&#xe914;" glyph-name="itaufonts_atualizando" d="M512 853.334c-47.147 0-85.333-38.187-85.333-85.333s38.187-85.333 85.333-85.333 85.333 38.187 85.333 85.333-38.187 85.333-85.333 85.333zM512 725.334c-23.573 0-42.667 19.093-42.667 42.667s19.093 42.667 42.667 42.667 42.667-19.093 42.667-42.667-19.093-42.667-42.667-42.667zM853.333 512c-47.147 0-85.333-38.187-85.333-85.333s38.187-85.333 85.333-85.333 85.333 38.187 85.333 85.333-38.187 85.333-85.333 85.333zM853.333 384c-23.573 0-42.667 19.093-42.667 42.667s19.093 42.667 42.667 42.667 42.667-19.093 42.667-42.667-19.093-42.667-42.667-42.667zM597.333 85.334c0-47.147-38.187-85.333-85.333-85.333s-85.333 38.187-85.333 85.333 38.187 85.333 85.333 85.333 85.333-38.187 85.333-85.333zM256 426.667c0 47.147-38.187 85.333-85.333 85.333s-85.333-38.187-85.333-85.333 38.187-85.333 85.333-85.333 85.333 38.187 85.333 85.333zM128 426.667c0 23.573 19.093 42.667 42.667 42.667s42.667-19.093 42.667-42.667-19.093-42.667-42.667-42.667-42.667 19.093-42.667 42.667zM828.373 622.294c33.28 33.28 33.28 87.36 0 120.64s-87.36 33.28-120.64 0-33.28-87.36 0-120.64 87.253-33.28 120.64 0zM737.813 712.854c16.64 16.64 43.733 16.64 60.373 0s16.64-43.733 0-60.373c-16.64-16.64-43.733-16.64-60.373 0s-16.64 43.733 0 60.373zM707.627 231.040c-33.28-33.28-33.28-87.36 0-120.64s87.36-33.28 120.64 0c33.28 33.28 33.28 87.36 0 120.64s-87.253 33.28-120.64 0zM798.187 140.48c-16.64-16.64-43.733-16.64-60.373 0s-16.64 43.733 0 60.373c16.64 16.64 43.733 16.64 60.373 0s16.64-43.733 0-60.373zM195.627 231.040c-33.28-33.28-33.28-87.36 0-120.64s87.36-33.28 120.64 0c33.28 33.28 33.28 87.36 0 120.64s-87.253 33.28-120.64 0zM286.187 140.48c-16.64-16.64-43.733-16.64-60.373 0s-16.64 43.733 0 60.373c16.64 16.64 43.733 16.64 60.373 0s16.64-43.733 0-60.373zM195.627 743.040c-33.28-33.28-33.28-87.36 0-120.64s87.36-33.28 120.64 0 33.28 87.36 0 120.64-87.253 33.28-120.64 0zM286.187 652.48c-16.64-16.64-43.733-16.64-60.373 0s-16.64 43.733 0 60.373c16.64 16.64 43.733 16.64 60.373 0s16.64-43.733 0-60.373z" />
<glyph unicode="&#xe915;" glyph-name="itaufonts_autoriz_pelo_celular" d="M554.667 128c0-23.573-19.093-42.667-42.667-42.667s-42.667 19.093-42.667 42.667 19.093 42.667 42.667 42.667 42.667-19.093 42.667-42.667zM725.333 512v170.667h-426.667v-426.667h469.333v-128c0-70.72-57.28-128-128-128h-256c-70.72 0-128 57.28-128 128v597.333c0 70.72 57.28 128 128 128h256c70.72 0 128-57.28 128-128v-256l-42.667 42.667zM298.667 213.334v-85.333c0-47.147 38.187-85.333 85.333-85.333h256c47.147 0 85.333 38.187 85.333 85.333v85.333h-426.667zM725.333 725.334c0 47.147-38.187 85.333-85.333 85.333h-256c-47.147 0-85.333-38.187-85.333-85.333h426.667zM975.040 548.374c-8.32 8.32-21.867 8.32-30.187 0l-198.187-198.187-112.96 112.853c-8.32 8.32-21.867 8.32-30.187 0s-8.32-21.867 0-30.187l128-128c4.16-4.16 9.6-6.293 15.040-6.293s10.88 2.133 15.040 6.293l213.333 213.333c8.533 8.427 8.533 21.867 0.107 30.187z" />
<glyph unicode="&#xe916;" glyph-name="itaufonts_balanco_de_caixa" d="M597.333 384c-3.84 0-7.573-0.533-11.093-1.493l-91.947 91.947c11.2 16.853 17.707 37.12 17.707 58.773 0 58.88-47.787 106.667-106.667 106.667s-106.667-47.787-106.667-106.667 47.787-106.667 106.667-106.667c21.76 0 41.92 6.507 58.773 17.707l91.947-91.947c-0.96-3.52-1.493-7.253-1.493-11.093 0-23.573 19.093-42.667 42.667-42.667s42.667 19.093 42.667 42.667c0.107 23.68-18.987 42.773-42.56 42.773zM405.333 469.334c-35.307 0-64 28.693-64 64s28.693 64 64 64 64-28.693 64-64c0-35.307-28.693-64-64-64zM763.2 519.68l79.040 79.040c4.8-1.28 10.027-1.813 15.36-1.28 21.013 2.133 37.44 19.52 38.293 40.64 1.067 25.067-19.413 45.547-44.48 44.48-21.013-0.853-38.507-17.387-40.64-38.293-0.533-5.333 0-10.56 1.28-15.36l-90.24-90.24c-24.853 8.64-52.16 13.76-81.813 15.467v85.867c0 50.133-10.133 93.653-59.627 143.040-22.933 22.933-48.747 40.853-76.693 53.013-25.6 11.2-52.267 17.173-77.12 17.173h-213.227c-23.573 0-42.667-19.093-42.667-42.667v-768c0-23.573 19.093-42.667 42.667-42.667h640c23.573 0 42.667 19.093 42.667 42.667v170.773c0 117.76-27.093 206.827-80.427 264.533-15.467 16.64-32.96 30.613-52.373 41.813zM853.333 42.667h-640v768h213.333c41.173 0 87.467-21.547 123.627-57.707 43.413-43.52 47.040-78.293 47.040-112.96v-85.973c0-22.080 18.027-41.387 40.107-42.56 143.253-7.893 215.893-108.053 215.893-298.133v-170.667z" />
<glyph unicode="&#xe917;" glyph-name="itaufonts_bike" d="M977.067 338.88c-43.52 53.547-113.387 87.787-187.733 87.787-49.067 0-96.107-14.933-135.040-40.427l62.933 125.76h72.107c11.733 0 21.333 9.6 21.333 21.333s-9.6 21.333-21.333 21.333h-170.667c-11.733 0-21.333-9.6-21.333-21.333s9.6-21.333 21.333-21.333h50.773l-67.093-134.080c-37.227 33.6-109.547 99.2-139.307 128.96-33.28 33.28-78.4 43.84-103.253 47.253l18.987 47.467 118.613 39.467c11.2 3.733 17.173 15.787 13.44 26.987s-15.787 17.173-26.987 13.44l-128-42.667c-5.973-2.027-10.773-6.507-13.013-12.267l-44.16-110.4v145.173c0 11.733-9.6 21.333-21.333 21.333h-128c-6.613 0-12.8-2.987-16.853-8.213s-5.44-11.947-3.84-18.347l42.667-170.667c2.347-9.493 10.88-16.107 20.693-16.107h85.333c0.96 0 1.813 0.107 2.667 0.213l-37.013-92.373c-16.213 4.48-33.387 6.933-51.093 6.933-105.92-0.107-191.893-86.080-191.893-192.107s85.973-192 192-192c106.027 0 192 85.973 192 192 0 73.28-40.96 136.853-101.333 169.28l60.693 151.68c11.093-0.747 59.093-5.76 89.6-36.267 41.493-41.493 205.227-186.347 205.227-186.347-21.013-29.973-33.387-66.453-33.387-105.813 0-101.867 82.56-184.533 184.533-184.533 101.867 0 184.533 82.56 184.533 184.533 0 39.36-12.373 75.84-33.387 105.813l37.653 30.613c5.44 4.48 3.413 12.48-1.067 17.92zM256 512h-47.36l-32 128h79.36v-128zM297.6 297.6c28.16-28.16 43.733-65.707 43.733-105.6s-15.573-77.44-43.733-105.6c-28.16-28.16-65.707-43.733-105.6-43.733s-77.44 15.573-105.6 43.733c-28.16 28.16-43.733 65.707-43.733 105.6s15.573 77.44 43.733 105.6c28.16 28.16 65.707 43.733 105.6 43.733 11.947 0 23.787-1.387 35.093-4.16l-54.933-137.28c-4.373-10.987 0.96-23.36 11.84-27.733 2.56-1.067 5.227-1.493 7.893-1.493 8.427 0 16.427 5.12 19.84 13.44l54.933 137.28c11.2-6.507 21.547-14.4 30.933-23.787zM789.333 384c29.867 0 59.947-6.827 87.147-19.733 17.707-8.427 33.92-19.2 48-31.893l-135.147-110.080-135.253 110.080c14.080 12.693 30.4 23.573 48 31.893 27.307 12.907 57.387 19.733 87.253 19.733zM931.2 184.534c0-37.867-14.72-73.493-41.6-100.267-26.773-26.773-62.4-41.6-100.267-41.6s-73.493 14.72-100.267 41.6c-26.773 26.773-41.6 62.4-41.6 100.267 0 28.48 8.32 55.68 23.893 78.827l109.867-89.493c2.347-1.92 5.227-2.88 8.107-2.88s5.76 0.96 8.107 2.88l109.867 89.493c15.573-23.147 23.893-50.347 23.893-78.827z" />
<glyph unicode="&#xe918;" glyph-name="itaufonts_biometria" d="M255.893 659.414c-0.96-10.987-10.133-19.413-21.227-19.413v0c-12.587 0-22.4 10.773-21.227 23.36 11.733 130.453 121.387 232.64 254.933 232.64s245.12-102.293 256.853-232.853c1.067-12.48-8.64-23.147-21.12-23.147h-0.213c-11.093 0-20.16 8.533-21.12 19.52-4.48 49.6-25.92 95.68-61.653 131.307-40 40-96.213 62.507-152.747 62.507-56.96 0-110.507-22.187-150.827-62.507-35.733-35.627-57.173-81.707-61.653-131.413zM810.667 404.374v-102.613c0-33.813-6.507-66.773-19.52-97.92-12.907-31.253-31.573-59.2-55.467-83.093l-10.347-10.347v-65.28c0-23.36-18.773-42.453-42.133-42.667l-213.333-2.453c-0.213 0-0.32 0-0.533 0-11.2 0-21.973 4.373-29.973 12.373-8.107 8-12.693 18.987-12.693 30.293v68.373l-15.787 16.747c-22.187 23.68-39.573 50.88-51.52 81.067s-18.027 61.867-18.027 94.4v12.267c0 25.387 7.467 49.92 21.547 71.040 10.027 14.933 16.64 24.747 21.12 31.36v222.080c0 46.933 38.4 85.333 85.333 85.333s85.333-38.4 85.333-85.333v-102.613c14.4-0.96 41.28-4.693 59.627-19.093 4.48-3.52 8.427-7.36 11.733-11.627 4.693 0.64 9.387 0.96 13.76 0.96 0.64 0 1.387 0 2.347 0 6.933 0 17.707-0.747 29.44-4.373 15.787-4.907 28.907-13.653 38.507-25.493 5.12 0.64 10.24 0.96 15.147 0.96 0.427 0 0.853 0 1.28 0 2.987-0.107 18.667-0.853 35.2-7.36 12.267-4.8 22.507-11.627 30.613-20.373 11.52-12.48 17.813-28.267 18.24-45.547 0.107-0.427 0.107-0.747 0.107-1.067zM768 404.374c-0.747 30.4-42.667 31.68-42.667 31.68-17.067 0-37.013-5.867-42.667-18.773v18.987c0 4.053-1.173 8-3.733 11.947-10.133 15.573-30.72 16.747-36.693 16.747-0.96 0-1.493 0-1.493 0-16.427 0-37.76-6.187-43.307-19.307v21.333c0 7.36-3.627 13.227-9.387 17.707-8.64 6.827-28.693 10.347-42.027 10.347-3.627 0-6.933-0.533-10.24-0.96 0 0-10.453-2.133-23.573-13.013v158.933c0 11.307-4.48 21.973-12.587 30.080s-18.773 12.587-30.080 12.587-21.973-4.48-30.080-12.587c-8.107-8.107-12.587-18.773-12.587-30.080v-235.733c-2.56-2.88-16.96-24.213-28.267-41.28-9.387-13.973-14.4-30.507-14.4-47.36v-12.267c0-54.293 20.693-106.667 57.92-146.24l27.2-29.12v-85.333l213.333 2.453v82.88l22.827 22.827c40 40 62.507 94.293 62.507 150.827v102.72z" />
<glyph unicode="&#xe919;" glyph-name="itaufonts_brilhos_nos_olhos" d="M256 661.334c0-35.307-28.693-64-64-64s-64 28.693-64 64 28.693 64 64 64 64-28.693 64-64zM192 426.667v0c-11.733 0-21.333-9.6-21.333-21.333v-256c0-11.733 9.6-21.333 21.333-21.333v0c11.733 0 21.333 9.6 21.333 21.333v256c0 11.733-9.6 21.333-21.333 21.333zM509.44 810.667h-40.107c-23.573 0-42.667-19.093-42.667-42.667v-682.667c0-23.573 19.093-42.667 42.667-42.667h42.667c211.2 0 382.613 170.56 384 381.547 1.387 212.48-173.973 386.453-386.56 386.453zM512 85.334c-14.4 0-28.693 0.96-42.667 2.667v677.333c13.973 1.707 28.267 2.667 42.667 2.667 188.48 0 341.333-152.853 341.333-341.333s-152.853-341.333-341.333-341.333z" />
<glyph unicode="&#xe91a;" glyph-name="itaufonts_busca_consulta" d="M725.333 533.334c0 176.747-143.253 320-320 320s-320-143.253-320-320 143.253-320 320-320 320 143.253 320 320zM513.28 277.76c-34.133-14.4-70.507-21.76-107.947-21.76s-73.813 7.36-107.947 21.76c-33.067 13.973-62.72 33.92-88.213 59.413s-45.44 55.147-59.413 88.213c-14.4 34.133-21.76 70.507-21.76 107.947s7.36 73.813 21.76 107.947c13.973 33.067 33.92 62.72 59.413 88.213s55.147 45.44 88.213 59.413c34.133 14.4 70.507 21.76 107.947 21.76s73.813-7.36 107.947-21.76c33.067-13.973 62.72-33.92 88.213-59.413s45.44-55.147 59.413-88.213c14.4-34.133 21.76-70.507 21.76-107.947s-7.36-73.813-21.76-107.947c-13.973-33.067-33.92-62.72-59.413-88.213-25.493-25.387-55.253-45.44-88.213-59.413zM926.187 76.48l-64-64c-16.64-16.64-43.627-16.64-60.373 0l-212.16 208.533c12.48 7.36 24.533 15.573 36.053 24.32l206.293-202.667 64 64-202.667 206.293c8.747 11.52 16.96 23.467 24.32 36.053l208.533-212.16c16.64-16.64 16.64-43.733 0-60.373z" />
<glyph unicode="&#xe91b;" glyph-name="itaufonts_caixa_eletronico" d="M810.667 810.667c22.613 0 44.053-8.96 60.267-25.067 16.213-16.213 25.067-37.547 25.067-60.267v-597.333c0-22.613-8.96-44.053-25.067-60.267-16.213-16.107-37.653-25.067-60.267-25.067h-597.333c-22.613 0-44.053 8.96-60.267 25.067-16.107 16.213-25.067 37.653-25.067 60.267v597.333c0 22.613 8.96 44.053 25.067 60.267 16.213 16.213 37.547 25.067 60.267 25.067h597.333zM810.667 853.334h-597.333c-70.4 0-128-57.6-128-128v-597.333c0-70.4 57.6-128 128-128h597.333c70.4 0 128 57.6 128 128v597.333c0 70.4-57.6 128-128 128v0zM767.893 682.667c0.107 0 0.107 0 0 0l0.107-298.56c0 0 0-0.107-0.107-0.107h-511.787c0 0-0.107 0-0.107 0.107v298.56c0 0 0 0.107 0.107 0.107h511.787zM768 725.334h-512c-23.467 0-42.667-19.2-42.667-42.667v-298.667c0-23.467 19.2-42.667 42.667-42.667h512c23.467 0 42.667 19.2 42.667 42.667v298.667c0 23.467-19.2 42.667-42.667 42.667v0zM554.667 192v0c0 11.733-9.6 21.333-21.333 21.333h-256c-11.733 0-21.333-9.6-21.333-21.333v0c0-11.733 9.6-21.333 21.333-21.333h256c11.733 0 21.333 9.6 21.333 21.333zM618.667 554.667h85.333c11.733 0 21.333 9.6 21.333 21.333v0c0 11.733-9.6 21.333-21.333 21.333h-85.333c-11.733 0-21.333-9.6-21.333-21.333v0c0-11.733 9.6-21.333 21.333-21.333zM446.72 554.667h86.827c11.093 0 20.053 9.067 20.053 20.053v0c0 11.093-9.067 20.053-20.053 20.053h-86.827c-11.093 0-20.053-9.067-20.053-20.053v0c0-10.987 9.067-20.053 20.053-20.053zM618.667 469.334h85.333c11.733 0 21.333 9.6 21.333 21.333v0c0 11.733-9.6 21.333-21.333 21.333h-85.333c-11.733 0-21.333-9.6-21.333-21.333v0c0-11.733 9.6-21.333 21.333-21.333zM448 469.334h85.333c11.733 0 21.333 9.6 21.333 21.333v0c0 11.733-9.6 21.333-21.333 21.333h-85.333c-11.733 0-21.333-9.6-21.333-21.333v0c0-11.733 9.6-21.333 21.333-21.333zM682.773 256v0 0zM682.667 256v0 0zM725.227 256c0.107 0 0.107 0 0 0l0.107-85.227c0 0 0-0.107-0.107-0.107h-42.56c0 0-0.107 0-0.107 0.107v85.227c0 0 0 0.107 0.107 0.107h42.56zM725.333 298.667h-42.667c-23.467 0-42.667-19.2-42.667-42.667v-85.333c0-23.467 19.2-42.667 42.667-42.667h42.667c23.467 0 42.667 19.2 42.667 42.667v85.333c0 23.467-19.2 42.667-42.667 42.667v0z" />
<glyph unicode="&#xe91c;" glyph-name="itaufonts_caixas_exclusivos" d="M421.973 461.334c7.36-9.173 5.867-22.613-3.307-29.973l-85.333-64c-3.947-3.093-8.64-4.693-13.333-4.693s-9.387 1.6-13.333 4.693l-85.333 64c-9.173 7.36-10.667 20.8-3.307 29.973s20.8 10.667 29.973 3.307l50.667-37.547v191.573c0 11.733 9.6 21.333 21.333 21.333v0c11.733 0 21.333-9.6 21.333-21.333v-191.573l50.667 37.547c9.173 7.36 22.613 5.867 29.973-3.307zM856.32 810.56l-46.933-65.28v-0.64h62.933v64.107c0 10.027 0.32 20.053 0.853 30.187h-0.853c-5.973-11.2-10.667-19.52-16-28.373zM1024 768c0-94.293-76.373-170.667-170.667-170.667v-469.333c0-70.4-57.6-128-128-128h-512c-70.4 0-128 57.6-128 128v512c0 70.4 57.6 128 128 128h469.333c0 94.293 76.373 170.667 170.667 170.667s170.667-76.373 170.667-170.667zM810.667 602.667c-59.947 15.467-107.2 62.613-122.667 122.667h-474.667c-22.613 0-44.053-8.96-60.267-25.067s-25.067-37.653-25.067-60.267v-512c0-22.613 8.96-44.053 25.067-60.267s37.653-25.067 60.267-25.067h512c22.613 0 44.053 8.96 60.267 25.067s25.067 37.653 25.067 60.267v474.667zM923.627 744.64h-26.88v119.36h-28.053l-85.653-122.667v-17.067h89.28v-52.267h24.533v52.267h26.88v20.373zM279.573 227.52c10.56 0 17.6-2.133 22.4-4.587l5.333 22.4c-6.72 2.88-17.813 5.333-28.693 5.333-41.173 0-65.28-27.2-65.28-62.4 0-36.373 23.893-60.053 60.48-60.053 14.72 0 26.987 3.093 33.28 5.973l-4.053 21.973c-5.76-2.453-13.227-4.587-23.36-4.587-20.267 0-35.947 13.76-35.947 37.867-0.32 21.44 13.227 38.080 35.84 38.080zM420.053 158.827c0-10.56 0.533-21.013 1.92-28.16h-26.773l-2.133 13.013h-0.747c-7.040-9.173-19.307-15.68-34.667-15.68-23.573 0-36.907 17.067-36.907 34.987 0 29.44 26.24 44.587 69.653 44.373v1.92c0 7.68-3.093 20.48-23.893 20.48-11.52 0-23.573-3.627-31.573-8.64l-5.76 19.307c8.64 5.333 23.893 10.347 42.453 10.347 37.653 0 48.427-23.893 48.427-49.707v-42.24zM391.147 188.054c-21.013 0.213-40.96-4.053-40.96-21.973 0-11.52 7.467-16.853 16.853-16.853 12.053 0 20.48 7.68 23.36 16.107 0.747 2.133 0.747 4.373 0.747 6.507v16.213zM466.347 298.667c-9.92 0-16.64-7.040-16.64-16.107 0-8.64 6.507-15.893 16.427-15.893 10.347 0 16.853 7.253 16.853 15.893-0.213 9.067-6.507 16.107-16.64 16.107zM451.413 132.374h29.653v117.333h-29.653v-117.333zM613.653 248h-32.32l-13.013-21.653c-3.627-5.973-7.040-12.053-10.347-18.56h-0.533c-3.413 5.973-6.72 11.84-10.56 18.027l-13.973 22.187h-33.067l39.253-57.6-40.747-59.733h32.853l13.547 23.36c3.627 6.507 7.253 12.267 10.56 19.093h0.533c3.413-6.507 6.72-12.8 10.56-19.093l14.187-23.36h33.813l-40 61.013 39.253 56.32zM723.413 158.827c0-10.56 0.533-21.013 1.92-28.16h-26.773l-2.133 13.013h-0.747c-7.040-9.173-19.307-15.68-34.667-15.68-23.573 0-36.907 17.067-36.907 34.987 0 29.44 26.24 44.587 69.653 44.373v1.92c0 7.68-3.093 20.48-23.893 20.48-11.52 0-23.573-3.627-31.573-8.64l-5.76 19.307c8.64 5.333 23.893 10.347 42.453 10.347 37.653 0 48.427-23.893 48.427-49.707v-42.24zM694.507 188.054c-21.013 0.213-40.96-4.053-40.96-21.973 0-11.52 7.467-16.853 16.853-16.853 12.053 0 20.48 7.68 23.36 16.107 0.747 2.133 0.747 4.373 0.747 6.507v16.213z" />
<glyph unicode="&#xe91d;" glyph-name="itaufonts_calculadora" d="M938.667 661.334c0-11.733-9.6-21.333-21.333-21.333h-149.333v-149.333c0-11.733-9.6-21.333-21.333-21.333v0c-11.733 0-21.333 9.6-21.333 21.333v149.333h-149.333c-11.733 0-21.333 9.6-21.333 21.333s9.6 21.333 21.333 21.333h149.333v149.333c0 11.733 9.6 21.333 21.333 21.333v0c11.733 0 21.333-9.6 21.333-21.333v-149.333h149.333c11.733 0 21.333-9.6 21.333-21.333zM363.093 277.76c-8.32 8.32-21.867 8.32-30.187 0l-105.6-105.6-105.6 105.6c-8.32 8.32-21.867 8.32-30.187 0v0c-8.32-8.32-8.32-21.867 0-30.187l105.6-105.6-105.6-105.6c-8.32-8.32-8.32-21.867 0-30.187v0c8.32-8.32 21.867-8.32 30.187 0l105.6 105.6 105.6-105.6c8.32-8.32 21.867-8.32 30.187 0v0c8.32 8.32 8.32 21.867 0 30.187l-105.6 105.6 105.6 105.6c8.32 8.32 8.32 21.867 0 30.187zM362.667 682.667h-256c-11.733 0-21.333-9.6-21.333-21.333s9.6-21.333 21.333-21.333h256c11.733 0 21.333 9.6 21.333 21.333s-9.6 21.333-21.333 21.333zM874.667 256h-256c-11.733 0-21.333-9.6-21.333-21.333s9.6-21.333 21.333-21.333h256c11.733 0 21.333 9.6 21.333 21.333s-9.6 21.333-21.333 21.333zM874.667 85.334h-256c-11.733 0-21.333-9.6-21.333-21.333s9.6-21.333 21.333-21.333h256c11.733 0 21.333 9.6 21.333 21.333s-9.6 21.333-21.333 21.333z" />
<glyph unicode="&#xe91e;" glyph-name="itaufonts_calendario" d="M682.667 768h-341.333v-42.667h341.333v42.667zM597.333 384c0-23.573-19.093-42.667-42.667-42.667h-85.333c-23.573 0-42.667 19.093-42.667 42.667v85.333c0 23.573 19.093 42.667 42.667 42.667h85.333c23.573 0 42.667-19.093 42.667-42.667v-85.333zM810.667 469.334v-85.333c0-23.573-19.093-42.667-42.667-42.667h-85.333c-23.573 0-42.667 19.093-42.667 42.667v85.333c0 23.573 19.093 42.667 42.667 42.667h85.333c23.573 0 42.667-19.093 42.667-42.667zM810.667 256v-85.333c0-23.573-19.093-42.667-42.667-42.667h-85.333c-23.573 0-42.667 19.093-42.667 42.667v85.333c0 23.573 19.093 42.667 42.667 42.667h85.333c23.573 0 42.667-19.093 42.667-42.667zM746.667 640c11.733 0 21.333 9.6 21.333 21.333v170.667c0 11.733-9.6 21.333-21.333 21.333s-21.333-9.6-21.333-21.333v-170.667c0-11.733 9.6-21.333 21.333-21.333zM384 256v-85.333c0-23.573-19.093-42.667-42.667-42.667h-85.333c-23.573 0-42.667 19.093-42.667 42.667v85.333c0 23.573 19.093 42.667 42.667 42.667h85.333c23.573 0 42.667-19.093 42.667-42.667zM896 768h-85.333v-42.667h85.333v-682.667h-768v682.667h85.333v42.667h-85.333c-23.573 0-42.667-19.093-42.667-42.667v-682.667c0-23.573 19.093-42.667 42.667-42.667h768c23.573 0 42.667 19.093 42.667 42.667v682.667c0 23.573-19.093 42.667-42.667 42.667zM277.333 640c11.733 0 21.333 9.6 21.333 21.333v170.667c0 11.733-9.6 21.333-21.333 21.333s-21.333-9.6-21.333-21.333v-170.667c0-11.733 9.6-21.333 21.333-21.333zM597.333 256v-85.333c0-23.573-19.093-42.667-42.667-42.667h-85.333c-23.573 0-42.667 19.093-42.667 42.667v85.333c0 23.573 19.093 42.667 42.667 42.667h85.333c23.573 0 42.667-19.093 42.667-42.667zM213.333 469.334c0 23.573 19.093 42.667 42.667 42.667h85.333c23.573 0 42.667-19.093 42.667-42.667v-85.333c0-23.573-19.093-42.667-42.667-42.667h-85.333c-23.573 0-42.667 19.093-42.667 42.667v85.333z" />
<glyph unicode="&#xe91f;" glyph-name="itaufonts_cambio" d="M917.333 682.667h-128c-11.733 0-21.333-9.6-21.333-21.333v-128c0-11.733 9.6-21.333 21.333-21.333v0c11.733 0 21.333 9.6 21.333 21.333v58.667c27.2-48.96 42.667-105.28 42.667-165.333 0-144.107-89.28-267.307-215.573-317.44-11.2 59.307-63.253 104.107-125.76 104.107-70.72 0-128-57.28-128-128s57.28-128 128-128c63.36 0 116.053 46.080 126.187 106.56 150.080 52.267 257.813 194.88 257.813 362.773 0 78.933-23.787 152.32-64.64 213.333h85.973c11.733 0 21.333 9.6 21.333 21.333s-9.6 21.333-21.333 21.333zM512-0c-47.147 0-85.333 38.187-85.333 85.333s38.187 85.333 85.333 85.333c47.147 0 85.333-38.187 85.333-85.333s-38.187-85.333-85.333-85.333zM640 768c0-70.72-57.28-128-128-128-62.507 0-114.56 44.8-125.76 104.107-126.293-50.133-215.573-173.333-215.573-317.44 0-59.947 15.467-116.373 42.667-165.333v58.667c0 11.733 9.6 21.333 21.333 21.333v0c11.733 0 21.333-9.6 21.333-21.333v-128c0-11.733-9.6-21.333-21.333-21.333v0h-128c-11.733 0-21.333 9.6-21.333 21.333s9.6 21.333 21.333 21.333h85.973c-40.747 61.013-64.64 134.4-64.64 213.333 0 167.893 107.733 310.613 257.813 362.773 10.133 60.48 62.827 106.56 126.187 106.56 70.72 0 128-57.28 128-128z" />
<glyph unicode="&#xe920;" glyph-name="itaufonts_cartao_de_seguranca" d="M213.333 533.334c0 11.733 9.6 21.333 21.333 21.333h85.333c11.733 0 21.333-9.6 21.333-21.333s-9.6-21.333-21.333-21.333h-85.333c-11.733 0-21.333 9.6-21.333 21.333zM448 512h85.333c11.733 0 21.333 9.6 21.333 21.333s-9.6 21.333-21.333 21.333h-85.333c-11.733 0-21.333-9.6-21.333-21.333s9.6-21.333 21.333-21.333zM661.333 512h85.333c11.733 0 21.333 9.6 21.333 21.333s-9.6 21.333-21.333 21.333h-85.333c-11.733 0-21.333-9.6-21.333-21.333s9.6-21.333 21.333-21.333zM234.667 384h85.333c11.733 0 21.333 9.6 21.333 21.333s-9.6 21.333-21.333 21.333h-85.333c-11.733 0-21.333-9.6-21.333-21.333s9.6-21.333 21.333-21.333zM448 384h85.333c11.733 0 21.333 9.6 21.333 21.333s-9.6 21.333-21.333 21.333h-85.333c-11.733 0-21.333-9.6-21.333-21.333s9.6-21.333 21.333-21.333zM661.333 384h85.333c11.733 0 21.333 9.6 21.333 21.333s-9.6 21.333-21.333 21.333h-85.333c-11.733 0-21.333-9.6-21.333-21.333s9.6-21.333 21.333-21.333zM768 682.667h-554.667c-70.72 0-128-57.28-128-128v-298.667h42.667v298.667c0 47.147 38.187 85.333 85.333 85.333h554.667c47.147 0 85.333-38.187 85.333-85.333v-298.667h42.667v298.667c0 70.72-57.28 128-128 128zM853.333 213.334h42.667v-42.667c0-70.72-57.28-128-128-128h-554.667c-70.72 0-128 57.28-128 128v42.667h768zM853.333 170.667h-725.333c0-47.147 38.187-85.333 85.333-85.333h554.667c47.147 0 85.333 38.187 85.333 85.333z" />
<glyph unicode="&#xe921;" glyph-name="itaufonts_cartao" d="M768 725.334h-554.667c-70.72 0-128-57.28-128-128v-384c0-70.72 57.28-128 128-128h554.667c70.72 0 128 57.28 128 128v384c0 70.72-57.28 128-128 128zM853.333 213.334c0-47.147-38.187-85.333-85.333-85.333h-554.667c-47.147 0-85.333 38.187-85.333 85.333v213.333h725.333v-213.333zM128 597.334c0 47.147 38.187 85.333 85.333 85.333h554.667c47.147 0 85.333-38.187 85.333-85.333h-725.333z" />
<glyph unicode="&#xe922;" glyph-name="itaufonts_carteirada" d="M709.653 356.48c-16.107 12.48-56.533 34.453-104.747 65.493-1.387 0.853-2.24 1.493-2.667 1.707 0 0-0.107 0.107-0.107 0.107-3.307 2.133-13.227 8.64-27.84 8.64-12.373 0-24.107-4.587-35.093-13.547l-0.32-0.213c-0.853-0.747-2.027-1.707-3.413-2.88-9.6-8-23.787-14.933-36.8-22.933-0.32-0.213-0.64-0.427-0.96-0.64 14.827 21.227 30.507 40 30.613 40.32 0.853 1.28 1.707 2.667 2.347 4.053 0.107 0.213 1.173 2.133 2.88 2.667 2.453 0.747 17.707 4.693 101.867 22.507 20.267 4.267 34.56 22.507 33.813 43.2-0.64 20.053-6.72 34.453-17.813 44.587-0.107 0.107-0.32 0.213-0.427 0.32-8.32 7.36-19.307 11.413-30.933 11.413-4.053 0-8.213-0.427-12.587-1.387-0.213 0-0.32-0.107-0.533-0.107-26.56-6.187-39.68-5.653-51.2-6.080h-0.107c-11.947-0.427-24.213-0.853-43.733-7.040-15.36-4.907-31.040-18.773-46.187-27.52l-0.213-0.107c-15.040-8-21.227-1.92-29.76 1.92-16.853 7.467-47.573 25.493-72.32 40.32l1.92 3.307c10.667 18.667 5.76 42.347-11.413 55.253l-234.453 186.56c-14.080 10.56-34.133 0.533-34.133-17.067v0c0-6.72 3.2-13.013 8.533-17.067l234.453-186.453-129.387-226.24c-1.92 1.28-3.947 2.453-6.080 3.413l-77.44 34.88c-14.080 6.4-30.080-3.947-30.080-19.413v0c0-8.427 4.907-16 12.587-19.413l77.44-34.987c7.253-4.907 15.467-7.147 23.573-7.147 14.72 0 29.227 7.68 37.12 21.547l0.32 0.64c35.947-22.187 93.44-57.813 140.587-87.787 39.68-25.173 72.96-45.333 98.987-59.84 46.827-26.133 65.28-31.68 79.787-32 0.747 0 1.387 0 2.027 0 19.947 0 44.8 6.293 57.387 14.507v0c8.533-2.027 17.067-3.093 24.427-3.093 12.693 0 23.573 3.413 32.213 10.24 1.387 1.067 2.56 2.133 3.84 3.413 2.667 2.667 2.24 5.333 4.373 8 0 0 0 0 0.107 0h2.667c6.080 0 24.747 0 38.827 14.080v0c4.8 4.8 8.747 10.133 11.627 15.893 6.4 2.667 15.253 6.613 20.267 11.733 7.253 7.573 12.16 17.067 14.613 28.48 6.827 31.467-13.013 58.56-58.453 93.76zM726.293 271.574c-1.493-7.040-7.893-10.56-13.12-10.56-0.427 0-0.96 0-1.387 0.107 0 0 0 0 0 0-1.067 0.213-2.24 0.32-3.307 0.32-3.307 0-6.4-1.067-8.747-3.52-3.093-3.2-4.267-7.253-3.307-11.627 0-1.173-0.427-5.12-5.12-9.707-1.067-1.067-4.373-1.6-8.747-1.6-4.587 0-7.253 0.64-12.48 2.027-1.173 0.32-2.347 0.533-3.627 0.533-2.88 0-5.653-0.96-8-2.667-2.987-2.24-4.8-5.653-5.227-9.387-0.213-0.747-1.707-4.8-8-11.093v0c-0.96-0.747-2.987-1.067-5.76-1.067-6.4 0-16.64 1.92-26.027 5.547-1.6 0.64-3.307 0.96-4.907 0.96-3.84 0-7.467-1.6-10.027-4.693-0.533-0.533-19.413-13.12-40.747-13.12-0.427 0-0.747 0-1.173 0-37.12 0.64-280 160.32-299.307 173.547l84.267 147.52c22.613-11.733 79.253-42.027 84.8-44.907 10.453-5.547 44.693-6.080 61.44 3.52 13.12 9.067 25.173 18.453 37.013 24.32 13.013 6.4 21.547 4.693 32.32 5.12 12.8 0.427 28.8 0.107 59.413 7.147 0.96 0.213 2.24 0.427 3.52 0.427 1.067 0 2.027-0.213 2.56-0.64 2.347-2.133 3.733-7.787 3.947-14.613-25.813-5.44-92.693-19.627-105.28-23.36-17.813-5.333-26.133-19.413-28.48-23.893-3.733-5.547-27.413-36.373-42.24-56.533-4.16-5.653-16.64-22.72-9.6-39.040 6.933-16 26.987-18.347 33.6-19.093 1.387-0.213 2.88-0.213 4.267-0.213 24.853 0 56.213 18.667 83.947 41.813 1.28 1.067 2.347 2.027 3.307 2.773 3.52 2.88 6.080 3.84 8 3.84s3.2-0.853 4.373-1.707c1.92-1.28 76.267-38.827 101.973-58.667 29.867-22.827 48.747-44.48 45.867-57.813zM938.667 405.334c0 16.64-18.347 26.88-32.533 18.133l-72.853-37.76-1.28-0.853c-0.853-0.533-1.813-0.853-2.773-0.853-0.747 0-3.307 0.213-4.587 2.773l-85.013 170.027c-1.067 2.24-0.427 4.907 1.6 6.4l189.653 168.747c4.907 3.84 7.787 9.707 7.787 15.893v0c0 16.747-19.2 26.133-32.427 16l-188.48-165.12c-20.053-13.333-26.987-39.573-16.213-61.12l85.013-169.92c8.427-16.853 25.387-26.347 42.773-26.347 9.067 0 18.24 2.56 26.453 8l72.853 37.76c6.187 3.947 10.027 10.773 10.027 18.24v0z" />
<glyph unicode="&#xe923;" glyph-name="itaufonts_cartoes" d="M725.333 682.667h-554.667c-70.72 0-128-57.28-128-128v-384c0-70.72 57.28-128 128-128h554.667c70.72 0 128 57.28 128 128v384c0 70.72-57.28 128-128 128zM810.667 170.667c0-47.147-38.187-85.333-85.333-85.333h-554.667c-47.147 0-85.333 38.187-85.333 85.333v213.333h725.333v-213.333zM85.333 554.667c0 47.147 38.187 85.333 85.333 85.333h554.667c47.147 0 85.333-38.187 85.333-85.333h-725.333zM986.56 642.134l-259.947 259.093c-50.027 50.027-130.987 50.027-181.013 0l-174.613-175.893h60.373l144.427 145.707c33.28 33.28 87.36 33.28 120.64 0l259.947-258.987c33.28-33.28 33.28-87.36 0-120.64l-17.707-16.533v-60.373l47.893 46.613c49.92 50.027 49.92 130.987 0 181.013z" />
<glyph unicode="&#xe924;" glyph-name="itaufonts_celular_pre_pago" d="M554.667 128c0-23.573-19.093-42.667-42.667-42.667s-42.667 19.093-42.667 42.667 19.093 42.667 42.667 42.667 42.667-19.093 42.667-42.667zM960 512h-106.667v106.667c0 11.733-9.6 21.333-21.333 21.333s-21.333-9.6-21.333-21.333v-106.667h-106.667c-11.733 0-21.333-9.6-21.333-21.333s9.6-21.333 21.333-21.333h106.667v-106.667c0-11.733 9.6-21.333 21.333-21.333s21.333 9.6 21.333 21.333v106.667h106.667c11.733 0 21.333 9.6 21.333 21.333s-9.6 21.333-21.333 21.333zM725.333 554.667v128h-426.667v-426.667h426.667v170.667h42.667v-298.667c0-70.72-57.28-128-128-128h-256c-70.72 0-128 57.28-128 128v597.333c0 70.72 57.28 128 128 128h256c70.72 0 128-57.28 128-128v-170.667h-42.667zM298.667 213.334v-85.333c0-47.147 38.187-85.333 85.333-85.333h256c47.147 0 85.333 38.187 85.333 85.333v85.333h-426.667zM725.333 725.334c0 47.147-38.187 85.333-85.333 85.333h-256c-47.147 0-85.333-38.187-85.333-85.333h426.667z" />
<glyph unicode="&#xe925;" glyph-name="itaufonts_celular" d="M640 853.334h-256c-70.72 0-128-57.28-128-128v-597.333c0-70.72 57.28-128 128-128h256c70.72 0 128 57.28 128 128v597.333c0 70.72-57.28 128-128 128zM384 810.667h256c47.147 0 85.333-38.187 85.333-85.333h-426.667c0 47.147 38.187 85.333 85.333 85.333zM725.333 128c0-47.147-38.187-85.333-85.333-85.333h-256c-47.147 0-85.333 38.187-85.333 85.333v85.333h426.667v-85.333zM725.333 256h-426.667v426.667h426.667v-426.667zM554.667 128c0-23.573-19.093-42.667-42.667-42.667s-42.667 19.093-42.667 42.667 19.093 42.667 42.667 42.667 42.667-19.093 42.667-42.667z" />
<glyph unicode="&#xe926;" glyph-name="itaufonts_chave_patrimonio" d="M682.667 682.667c-47.040 0-85.333-38.293-85.333-85.333s38.293-85.333 85.333-85.333 85.333 38.293 85.333 85.333-38.293 85.333-85.333 85.333zM682.667 554.667c-23.573 0-42.667 19.093-42.667 42.667s19.093 42.667 42.667 42.667 42.667-19.093 42.667-42.667-19.093-42.667-42.667-42.667zM918.507 696.96c-12.907 30.507-31.36 57.813-54.827 81.387s-50.88 41.92-81.387 54.827c-31.573 13.333-65.067 20.16-99.627 20.16s-68.053-6.827-99.627-20.16c-30.507-12.907-57.813-31.36-81.387-54.827s-41.92-50.88-54.827-81.387c-13.333-31.573-20.16-65.067-20.16-99.627 0-30.613 5.547-61.12 16.213-89.707l-343.253-305.067c-9.067-8.107-14.293-19.733-14.293-31.893v-128c0-14.827 7.68-28.48 20.267-36.267 6.827-4.267 14.613-6.4 22.4-6.4 6.507 0 13.013 1.493 19.093 4.48l170.667 85.333c14.4 7.253 23.573 21.973 23.573 38.187v42.667h42.667c23.573 0 42.667 19.093 42.667 42.667v42.667h42.667c11.307 0 22.187 4.48 30.187 12.48l90.24 90.24c29.44-11.413 61.12-17.387 92.907-17.387 34.56 0 68.053 6.827 99.627 20.16 30.507 12.907 57.813 31.36 81.387 54.827s41.92 50.88 54.827 81.387c13.333 31.573 20.16 65.067 20.16 99.627s-6.827 68.053-20.16 99.627zM682.667 384c-37.013 0-71.787 9.387-102.080 25.92l-111.253-111.253h-85.333v-85.333h-85.333v-85.333l-170.667-85.333v128l366.613 325.867c-16.107 29.973-25.28 64.32-25.28 100.8 0 117.867 95.467 213.333 213.333 213.333s213.333-95.467 213.333-213.333-95.467-213.333-213.333-213.333z" />
<glyph unicode="&#xe927;" glyph-name="itaufonts_check" d="M973.867 682.027l-559.787-559.467c-16.64-16.64-43.627-16.64-60.373 0l-260.907 260.8c-9.92 9.92-9.92 26.027 0 35.947s26.027 9.92 35.947 0l255.253-255.36 554.027 553.92c9.92 9.92 26.027 9.92 35.947 0 9.813-9.92 9.813-25.92-0.107-35.84z" />
<glyph unicode="&#xe928;" glyph-name="itaufonts_cheque" d="M896 640v-384h-768v384h768zM896 682.667h-768c-23.573 0-42.667-19.093-42.667-42.667v-384c0-23.573 19.093-42.667 42.667-42.667h768c23.573 0 42.667 19.093 42.667 42.667v384c0 23.573-19.093 42.667-42.667 42.667v0zM789.333 554.667h-554.667c-11.733 0-21.333-9.6-21.333-21.333s9.6-21.333 21.333-21.333h554.667c11.733 0 21.333 9.6 21.333 21.333s-9.6 21.333-21.333 21.333v0zM789.333 469.334h-554.667c-11.733 0-21.333-9.6-21.333-21.333s9.6-21.333 21.333-21.333h554.667c11.733 0 21.333 9.6 21.333 21.333s-9.6 21.333-21.333 21.333v0zM789.333 384h-213.333c-11.733 0-21.333-9.6-21.333-21.333s9.6-21.333 21.333-21.333h213.333c11.733 0 21.333 9.6 21.333 21.333s-9.6 21.333-21.333 21.333v0z" />
<glyph unicode="&#xe929;" glyph-name="itaufonts_cobranca_ativa" d="M961.067 277.227c0-71.147-36.8-152.747-139.413-172.907-3.627-0.427-7.147-0.747-10.773-1.067v-81.92c0-11.733-9.6-21.333-21.333-21.333s-21.333 9.6-21.333 21.333v80.213c-3.52 0-7.147 0.107-10.667 0.213-53.867 2.24-112.533 20.693-145.92 46.4l-7.36 5.653 29.76 52.373 9.707-7.573c32.32-25.067 79.893-40.64 124.16-40.64 38.187 0 70.827 11.52 94.507 33.28 22.507 20.8 34.987 49.813 34.987 81.707 0 28.693-8.747 53.013-26.773 74.347-18.667 22.080-47.573 41.707-88.533 59.947-57.067 24.747-93.867 46.827-119.253 71.573-30.827 29.973-45.867 65.493-45.867 108.48 0 81.493 56.107 145.387 140.587 161.493 3.52 0.64 7.040 1.067 10.667 1.493v81.707c0 11.733 9.6 21.333 21.333 21.333s21.333-9.6 21.333-21.333v-81.067c3.52-0.213 7.040-0.533 10.667-0.853 45.12-2.987 82.56-14.933 114.453-36.373l8.213-5.547-29.76-52.373-9.6 6.72c-17.6 12.267-55.573 32.853-111.147 32.853-36.373 0-66.453-11.093-86.933-32-17.28-17.707-27.2-42.347-27.2-67.627 0-29.867 8.96-51.84 28.907-71.147 18.453-17.813 46.080-34.027 95.573-55.893l0.213-0.107c56.213-26.027 94.080-52.16 119.147-82.453 25.387-30.613 37.653-66.24 37.653-108.907zM85.333 149.334c0-11.733 9.6-21.333 21.333-21.333h380.693l24.64 42.667h-405.333c-11.733 0-21.333-9.6-21.333-21.333zM170.667 277.334c0-11.733 9.6-21.333 21.333-21.333h362.667l24.64 42.667h-387.307c-11.733 0-21.333-9.6-21.333-21.333zM277.333 384h338.027l24.64 42.56c-0.533 0-0.96 0.107-1.493 0.107h-361.173c-11.733 0-21.333-9.6-21.333-21.333s9.6-21.333 21.333-21.333z" />
<glyph unicode="&#xe92a;" glyph-name="itaufonts_coleta" d="M467.093 98.774l-1.493 4.373c-10.56 31.787-13.547 66.027-8.533 99.2s17.92 65.067 37.333 92.267l85.227 119.36 125.44-67.52c6.4-3.413 13.333-5.12 20.267-5.12 9.6 0 19.2 3.307 26.987 9.6 13.333 10.88 18.88 28.8 13.867 45.333l-128 426.667c-5.547 18.453-22.507 30.4-40.853 30.4-4.053 0-8.213-0.533-12.267-1.813l-426.667-128c-16.533-4.907-28.48-19.413-30.187-36.587s7.040-33.707 22.187-41.92l102.613-55.253-23.573-33.067c-43.52-60.907-62.507-135.36-53.44-209.6s45.333-141.973 102.080-190.72l120.747-103.467c7.893-6.827 17.813-10.24 27.733-10.24 8.32 0 16.533 2.347 23.787 7.253 16 10.667 22.827 30.72 16.747 48.853zM425.173 89.707l1.493-4.373-120.747 103.467c-100.693 86.293-118.827 235.2-41.707 343.147l51.733 72.427-145.28 78.293 426.667 128 128-426.667-158.507 85.333-107.093-149.973c-47.573-66.56-60.373-152-34.56-229.653zM853.333 256v-213.333c0-23.467-19.2-42.667-42.667-42.667h-384c17.067 0 33.493 5.013 47.573 14.507 10.773 7.253 19.733 16.96 26.24 28.16h310.080c0 0 0.107 0 0.107 0.107v213.227c0 0 0 0.107-0.107 0.107h-290.24c2.773 4.693 5.653 9.387 8.853 13.867l20.587 28.8h260.907c23.467-0.107 42.667-19.307 42.667-42.773z" />
<glyph unicode="&#xe92b;" glyph-name="itaufonts_compras_vendas" d="M384 213.334c-47.147 0-85.333-38.187-85.333-85.333s38.187-85.333 85.333-85.333 85.333 38.187 85.333 85.333-38.187 85.333-85.333 85.333zM384 85.334c-23.573 0-42.667 19.093-42.667 42.667s19.093 42.667 42.667 42.667 42.667-19.093 42.667-42.667-19.093-42.667-42.667-42.667zM725.333 213.334c-47.147 0-85.333-38.187-85.333-85.333s38.187-85.333 85.333-85.333 85.333 38.187 85.333 85.333-38.187 85.333-85.333 85.333zM725.333 85.334c-23.573 0-42.667 19.093-42.667 42.667s19.093 42.667 42.667 42.667 42.667-19.093 42.667-42.667-19.093-42.667-42.667-42.667zM896 725.334h-648.533l-7.467 42.667c-3.52 20.373-5.973 42.667-26.667 42.667h-106.667c-11.733 0-21.333-9.6-21.333-21.333s9.6-21.333 21.333-21.333h87.467l104.533-469.333c3.733-20.267 22.080-42.667 42.667-42.667h469.333c20.587 0 38.933 22.4 42.667 42.667l85.333 384c0 26.773-16 42.667-42.667 42.667zM810.667 298.667h-469.333l-85.333 384h640l-85.333-384z" />
<glyph unicode="&#xe92c;" glyph-name="itaufonts_comprovante" d="M938.667 21.334c0-11.733-9.6-21.333-21.333-21.333h-810.667c-11.733 0-21.333 9.6-21.333 21.333s9.6 21.333 21.333 21.333h810.667c11.733 0 21.333-9.6 21.333-21.333zM213.333 213.334v600.64c0 0.64 0 1.173 0 1.707 0.853 22.080 19.627 37.547 39.893 37.547 5.973 0 12.053-1.387 17.92-4.267l70.187-35.093 66.24 34.88c5.973 2.987 12.587 4.48 19.093 4.48s13.12-1.493 19.093-4.48l66.24-38.080 66.24 38.187c5.973 2.987 12.587 4.48 19.093 4.48s13.12-1.493 19.093-4.48l66.24-34.88 70.187 35.093c5.867 2.88 11.947 4.267 17.92 4.267 20.267 0 38.933-15.467 39.893-37.547 0-0.533 0-1.173 0-1.707v-600.747c0-23.573-19.093-42.667-42.667-42.667h-512c-23.573 0-42.667 19.093-42.667 42.667zM256 213.334v0h512v595.627l-85.867-42.987-84.693 44.693-85.44-49.28-21.333 12.267-64.107 37.013-84.8-44.693-19.627 9.813-66.133 33.173v-595.627zM362.667 597.334h298.667c11.733 0 21.333 9.6 21.333 21.333s-9.6 21.333-21.333 21.333h-298.667c-11.733 0-21.333-9.6-21.333-21.333s9.6-21.333 21.333-21.333zM362.667 469.334h298.667c11.733 0 21.333 9.6 21.333 21.333s-9.6 21.333-21.333 21.333h-298.667c-11.733 0-21.333-9.6-21.333-21.333s9.6-21.333 21.333-21.333zM362.667 341.334h298.667c11.733 0 21.333 9.6 21.333 21.333s-9.6 21.333-21.333 21.333h-298.667c-11.733 0-21.333-9.6-21.333-21.333s9.6-21.333 21.333-21.333z" />
<glyph unicode="&#xe92d;" glyph-name="itaufonts_computador_internet" d="M960-0h-896c-11.733 0-21.333 9.6-21.333 21.333v0c0 11.733 9.6 21.333 21.333 21.333h896c11.733 0 21.333-9.6 21.333-21.333v0c0-11.733-9.6-21.333-21.333-21.333zM896 725.334h-768v-512h768v512zM896 768c23.573 0 42.667-19.093 42.667-42.667v-512c0-23.573-19.093-42.667-42.667-42.667h-768c-23.573 0-42.667 19.093-42.667 42.667v512c0 23.573 19.093 42.667 42.667 42.667h768zM704 682.667h-42.667c-11.733 0-21.333-9.6-21.333-21.333v-42.667c0-11.733 9.6-21.333 21.333-21.333h42.667c11.733 0 21.333 9.6 21.333 21.333v42.667c0 11.733-9.6 21.333-21.333 21.333v0zM832 682.667h-42.667c-11.733 0-21.333-9.6-21.333-21.333v-42.667c0-11.733 9.6-21.333 21.333-21.333h42.667c11.733 0 21.333 9.6 21.333 21.333v42.667c0 11.733-9.6 21.333-21.333 21.333v0zM704 554.667h-42.667c-11.733 0-21.333-9.6-21.333-21.333v-42.667c0-11.733 9.6-21.333 21.333-21.333h42.667c11.733 0 21.333 9.6 21.333 21.333v42.667c0 11.733-9.6 21.333-21.333 21.333v0zM832 554.667h-42.667c-11.733 0-21.333-9.6-21.333-21.333v-42.667c0-11.733 9.6-21.333 21.333-21.333h42.667c11.733 0 21.333 9.6 21.333 21.333v42.667c0 11.733-9.6 21.333-21.333 21.333v0zM832 426.667h-42.667c-11.733 0-21.333-9.6-21.333-21.333v-42.667c0-11.733 9.6-21.333 21.333-21.333h42.667c11.733 0 21.333 9.6 21.333 21.333v42.667c0 11.733-9.6 21.333-21.333 21.333v0z" />
<glyph unicode="&#xe92e;" glyph-name="itaufonts_conexao" d="M554.667 170.027c0-23.573-19.093-42.667-42.667-42.667s-42.667 19.093-42.667 42.667c0 23.573 19.093 42.667 42.667 42.667s42.667-19.093 42.667-42.667zM512 383.36c-68.373 0-119.040-46.4-121.173-48.427-8.64-8-9.173-21.547-1.067-30.187 4.16-4.48 9.92-6.827 15.68-6.827 5.227 0 10.347 1.92 14.507 5.653 0.427 0.32 40.853 37.013 92.16 37.013 51.627 0 91.52-36.373 92.053-36.907 8.533-8 22.080-7.573 30.080 0.96 8.107 8.533 7.68 22.080-0.96 30.187-2.133 2.027-52.267 48.533-121.28 48.533zM512 554.027c-156.373 0-245.973-87.893-249.707-91.627-8.32-8.32-8.32-21.867 0-30.187 4.16-4.16 9.6-6.293 15.147-6.293 5.44 0 10.88 2.027 15.040 6.187 0.213 0.213 20.587 20.16 57.813 39.787 34.133 17.92 89.813 39.36 161.813 39.36 71.68 0 127.467-21.44 161.6-39.36 37.333-19.627 57.813-39.573 58.027-39.787v0c8.32-8.213 21.867-8.213 30.080 0.107 8.32 8.32 8.213 21.867-0.107 30.187-3.733 3.84-93.867 91.627-249.707 91.627zM889.707 591.040c-1.387 1.387-35.093 34.667-98.56 67.84-37.013 19.307-76.693 34.667-118.080 45.653-51.413 13.867-105.707 20.8-161.067 20.8-55.147 0-109.227-6.933-160.747-20.693-41.28-10.987-80.96-26.347-118.080-45.653-63.573-33.067-97.493-66.347-98.88-67.733-8.32-8.32-8.427-21.76-0.107-30.080s21.76-8.427 30.187-0.213c0.32 0.32 31.787 30.933 90.24 61.12 34.24 17.707 70.827 31.68 108.907 41.813 47.467 12.373 97.493 18.773 148.48 18.773 51.2 0 101.333-6.4 149.013-18.987 38.080-10.027 74.773-24.107 108.907-41.813 57.92-29.973 89.067-60.373 89.813-61.013 4.16-4.16 9.6-6.187 15.040-6.187s10.88 2.133 15.040 6.293c8.32 8.32 8.32 21.76-0.107 30.080z" />
<glyph unicode="&#xe92f;" glyph-name="itaufonts_configuracoes" d="M512 597.334c-94.293 0-170.667-76.373-170.667-170.667s76.373-170.667 170.667-170.667 170.667 76.373 170.667 170.667-76.373 170.667-170.667 170.667zM512 298.667c-70.72 0-128 57.28-128 128s57.28 128 128 128 128-57.28 128-128-57.28-128-128-128zM896 512h-53.44c-8.107 31.36-20.48 60.907-36.48 88l37.76 37.76c16.64 16.64 16.64 43.627 0 60.373l-60.373 60.373c-16.64 16.64-43.627 16.64-60.373 0l-37.867-37.867c-27.2 16-56.747 28.48-88 36.48v53.547c0 23.573-19.093 42.667-42.667 42.667h-85.333c-23.573 0-42.667-19.093-42.667-42.667v-53.44c-31.36-8.107-60.907-20.48-88-36.48l-37.76 37.76c-16.64 16.64-43.627 16.64-60.373 0l-60.373-60.373c-16.64-16.64-16.64-43.627 0-60.373l37.76-37.76c-16-27.2-28.48-56.747-36.48-88h-53.333c-23.573 0-42.667-19.093-42.667-42.667v-85.333c0-23.573 19.093-42.667 42.667-42.667h53.44c8.107-31.36 20.48-60.907 36.48-88l-37.76-37.867c-16.64-16.64-16.64-43.627 0-60.373l60.373-60.373c16.64-16.64 43.627-16.64 60.373 0l37.867 37.867c27.2-16 56.747-28.48 88-36.48v-53.44c0-23.573 19.093-42.667 42.667-42.667h85.333c23.573 0 42.667 19.093 42.667 42.667v53.44c31.36 8.107 60.907 20.48 88 36.48l37.867-37.867c16.64-16.64 43.627-16.64 60.373 0l60.373 60.373c16.64 16.64 16.64 43.627 0 60.373l-37.76 37.76c16 27.2 28.48 56.747 36.48 88h53.227c23.573 0 42.667 19.093 42.667 42.667v85.333c0 23.68-19.093 42.773-42.667 42.773zM896 384h-88.32c-2.133-14.613-5.227-28.8-9.387-42.667v0c-10.133-34.133-26.24-65.707-47.040-93.547v0l62.507-62.507-60.373-60.373-62.507 62.507c-27.947-20.907-59.733-37.12-94.080-47.253-0.96-0.32-1.813-0.533-2.773-0.747-0.64-0.213-1.387-0.427-2.027-0.64-1.6-0.427-3.2-0.853-4.693-1.28-0.64-0.107-1.173-0.32-1.813-0.427-1.067-0.32-2.133-0.533-3.2-0.747-0.64-0.213-1.387-0.32-2.027-0.533-0.96-0.213-2.027-0.427-2.987-0.64-0.747-0.107-1.387-0.32-2.133-0.427-0.96-0.213-2.027-0.427-2.987-0.64-0.747-0.107-1.387-0.32-2.133-0.427-1.067-0.213-2.027-0.427-3.093-0.64-0.64-0.107-1.28-0.213-2.027-0.32-1.173-0.213-2.24-0.427-3.413-0.533-0.533-0.107-1.067-0.213-1.707-0.32-1.707-0.32-3.413-0.533-5.12-0.747v-88.427h-85.333v88.427c-1.707 0.213-3.413 0.533-5.12 0.747-0.533 0.107-1.173 0.213-1.707 0.32-1.173 0.213-2.24 0.427-3.413 0.533-0.64 0.107-1.28 0.213-2.027 0.32-1.067 0.213-2.027 0.427-3.093 0.64-0.747 0.107-1.387 0.32-2.133 0.427-0.96 0.213-2.027 0.427-2.987 0.64-0.747 0.107-1.387 0.32-2.133 0.427-0.96 0.213-2.027 0.427-2.987 0.64-0.64 0.107-1.387 0.32-2.027 0.533-1.067 0.213-2.133 0.533-3.2 0.747-0.64 0.107-1.173 0.32-1.813 0.427-1.6 0.427-3.2 0.853-4.693 1.28-0.64 0.213-1.387 0.427-2.027 0.64-0.96 0.213-1.813 0.533-2.773 0.747-34.347 10.133-66.133 26.347-94.080 47.253v0 0l-62.507-62.507-60.373 60.373 62.507 62.507c-20.8 27.84-36.907 59.413-47.040 93.547v0c-4.16 13.867-7.253 28.053-9.387 42.667v0h-88.32v85.333h88.32c2.133 14.613 5.227 28.8 9.387 42.667v0c10.133 34.133 26.24 65.707 47.040 93.547v0l-62.507 62.507 60.373 60.373 62.507-62.507c27.947 20.907 59.733 37.12 94.080 47.253 0.96 0.32 1.813 0.533 2.773 0.747 0.64 0.213 1.387 0.427 2.027 0.64 1.6 0.427 3.2 0.853 4.693 1.28 0.64 0.107 1.173 0.32 1.813 0.427 1.067 0.32 2.133 0.533 3.2 0.747 0.64 0.213 1.387 0.32 2.027 0.533 0.96 0.213 2.027 0.427 2.987 0.64 0.747 0.107 1.387 0.32 2.133 0.427 0.96 0.213 2.027 0.427 2.987 0.64 0.747 0.107 1.387 0.32 2.133 0.427 1.067 0.213 2.027 0.427 3.093 0.64 0.64 0.107 1.28 0.213 2.027 0.32 1.173 0.213 2.24 0.427 3.413 0.533 0.533 0.107 1.067 0.213 1.707 0.32 1.707 0.32 3.413 0.533 5.12 0.747v88.427h85.333v-88.427c1.707-0.213 3.413-0.533 5.12-0.747 0.533-0.107 1.173-0.213 1.707-0.32 1.173-0.213 2.24-0.427 3.413-0.533 0.64-0.107 1.28-0.213 2.027-0.32 1.067-0.213 2.027-0.427 3.093-0.64 0.747-0.107 1.387-0.32 2.133-0.427 0.96-0.213 2.027-0.427 2.987-0.64 0.747-0.107 1.387-0.32 2.133-0.427 0.96-0.213 2.027-0.427 2.987-0.64 0.64-0.107 1.387-0.32 2.027-0.533 1.067-0.213 2.133-0.533 3.2-0.747 0.64-0.107 1.173-0.32 1.813-0.427 1.6-0.427 3.2-0.853 4.693-1.28 0.64-0.213 1.387-0.427 2.027-0.64 0.96-0.213 1.813-0.533 2.773-0.747 34.347-10.133 66.133-26.347 94.080-47.253v0 0l62.507 62.507 60.373-60.373-62.507-62.507c20.8-27.84 36.907-59.413 47.040-93.547v0c4.16-13.867 7.253-28.053 9.387-42.667v0h88.32v-85.333z" />
<glyph unicode="&#xe930;" glyph-name="itaufonts_cons_investimentos" d="M256 341.334h85.333v-170.667h-85.333v170.667zM426.667 170.667h85.333v298.667h-85.333v-298.667zM597.333 170.667h85.333v426.667h-85.333v-426.667zM1024 768c0-94.293-76.373-170.667-170.667-170.667v-469.333c0-70.4-57.6-128-128-128h-512c-70.4 0-128 57.6-128 128v512c0 70.4 57.6 128 128 128h469.333c0 94.293 76.373 170.667 170.667 170.667s170.667-76.373 170.667-170.667zM810.667 602.667c-59.947 15.467-107.2 62.613-122.667 122.667h-474.667c-22.613 0-44.053-8.96-60.267-25.067-16.107-16.213-25.067-37.653-25.067-60.267v-512c0-22.613 8.96-44.053 25.067-60.267 16.213-16.213 37.547-25.067 60.267-25.067h512c22.613 0 44.053 8.96 60.267 25.067 16.213 16.213 25.067 37.547 25.067 60.267v474.667zM914.667 691.947h-86.293v0.64l15.36 14.187c40.427 39.040 66.133 67.627 66.133 103.147 0 27.52-17.387 55.893-58.773 55.893-22.187 0-41.067-8.32-54.4-19.52l8.32-18.347c8.853 7.36 23.36 16.213 40.747 16.213 28.693 0 38.080-18.027 38.080-37.547-0.32-28.907-22.507-53.76-71.467-100.48l-20.373-19.84v-16h122.667v21.653z" />
<glyph unicode="&#xe931;" glyph-name="itaufonts_consorcio_auto" d="M789.333 896c-85.227 0-157.547-55.573-182.613-132.48 7.147-1.813 14.293-4.16 21.227-7.040 6.4-2.667 12.48-5.76 18.453-9.173 7.040 23.253 19.733 44.587 37.333 62.187 28.16 28.16 65.707 43.733 105.6 43.733s77.44-15.573 105.6-43.733c28.16-28.16 43.733-65.707 43.733-105.6s-15.573-77.44-43.733-105.6c-3.947-3.947-8.107-7.68-12.373-11.093l38.72-14.4 2.133-0.853c1.28-0.533 2.56-1.067 3.84-1.707 33.493 34.773 54.080 81.813 54.080 133.76 0 106.027-85.973 192-192 192v0zM789.333 810.667c-11.733 0-21.333-9.6-21.333-21.333v-20.373c-23.573-7.68-37.76-25.707-37.76-48.747 0-13.333 4.693-24.32 14.4-33.387 8.213-7.68 19.84-14.080 36.587-20.16 21.12-7.68 28.907-14.72 28.907-25.707 0-8.64-6.293-15.040-17.173-17.6l-10.453-2.347 10.027-3.733 37.973-14.080 1.387 1.173c12.267 9.92 19.093 24.107 19.093 40 0 26.453-14.187 42.987-47.467 55.467-24.107 9.173-32.213 15.36-32.213 24.747 0 12.16 12.16 16.533 23.573 16.533 17.28 0 28.907-5.653 35.733-8.96l1.173-0.533 3.413-1.6 1.067 3.627 7.573 25.813 0.747 2.56-2.347 1.173c-10.027 5.013-20.16 8-31.573 9.28v16.853c0 11.733-9.6 21.333-21.333 21.333v0zM570.453 725.334h-229.12c-20.587 0-42.24-6.827-64.427-20.373-17.493-10.667-35.093-25.493-50.88-42.773-15.467-16.96-28.587-35.627-38.080-54.187-9.6-18.773-15.253-36.8-16.853-53.653-20.48-1.493-38.613-7.787-53.12-18.453-21.013-15.68-32.64-39.253-32.64-66.56v-163.52c0-22.613 14.4-42.667 35.947-49.813l6.72-2.24c0 0.747 0 1.493 0 2.347 0 14.187 1.707 28.053 5.013 41.173-3.093 1.707-5.013 5.013-5.013 8.64v163.52c0 29.013 23.573 42.667 52.587 42.667h32.747v32.747c0 52.48 75.413 137.813 128 137.813h229.12c17.28 0 33.813-6.827 45.973-19.093l108.907-108.907 166.187-61.76c28.907-14.507 47.147-44.053 47.147-76.373v-32.533c0-39.147-17.6-74.24-45.333-97.707 1.707-9.813 2.667-19.947 2.667-30.293 0-6.933-0.427-13.76-1.28-20.587 13.333 7.573 25.6 16.853 36.587 27.84 15.68 15.68 27.947 33.92 36.587 54.187 8.96 21.12 13.44 43.413 13.44 66.453v32.64c0 23.787-6.613 47.040-19.093 67.307s-30.4 36.587-51.627 47.147l-2.027 1.067-2.133 0.853-157.44 58.453-102.4 102.4c-10.027 10.027-21.76 17.92-34.987 23.36-13.12 5.44-26.987 8.213-41.173 8.213v0zM725.333 384c-70.72 0-128-57.28-128-128s57.28-128 128-128 128 57.28 128 128-57.28 128-128 128v0zM725.333 170.667c-47.040 0-85.333 38.293-85.333 85.333s38.293 85.333 85.333 85.333 85.333-38.293 85.333-85.333-38.293-85.333-85.333-85.333v0zM298.667 384c-70.72 0-128-57.28-128-128s57.28-128 128-128 128 57.28 128 128-57.28 128-128 128v0zM298.667 170.667c-47.040 0-85.333 38.293-85.333 85.333s38.293 85.333 85.333 85.333 85.333-38.293 85.333-85.333-38.293-85.333-85.333-85.333v0zM554.667 256h-85.333c0-14.72-1.92-29.013-5.333-42.667h96c-3.413 13.653-5.333 27.947-5.333 42.667v0z" />
<glyph unicode="&#xe932;" glyph-name="itaufonts_consorcio_imobiliario" d="M434.347 617.6l-263.893-184.213v-305.387c0-70.72 57.28-128 128-128h426.667c70.72 0 128 57.28 128 128v305.387l-264 184.213c-46.933 29.867-107.733 29.867-154.773 0zM597.12 42.667h-170.667v213.333h170.667v-213.333zM810.453 128c0-47.147-38.187-85.333-85.333-85.333h-85.333v213.333c0 23.573-19.093 42.667-42.667 42.667h-170.667c-23.573 0-42.667-19.093-42.667-42.667v-213.333h-85.333c-47.147 0-85.333 38.187-85.333 85.333v283.093l244.16 170.453c33.173 21.12 75.947 21.12 109.013 0l244.16-170.453v-283.093zM935.040 479.254c-8.533-11.84-22.827-10.987-29.44-6.507l-339.307 236.8c-33.173 21.12-75.947 21.12-109.013 0l-339.413-236.907c-9.92-6.293-23.147-3.413-29.44 6.507s-3.413 23.147 6.507 29.44l339.413 237.013c47.040 29.973 107.84 29.973 154.88 0l178.88-124.8v0.213l30.613-21.44c0 0-0.107 0-0.107-0.107l130.027-90.773c9.813-6.4 13.333-19.947 6.4-29.44zM815.36 687.254c0 10.88-8.107 18.027-28.907 25.387-16.747 6.187-28.373 12.587-36.587 20.267-9.707 9.173-14.4 20.053-14.4 33.173 0 12.8 4.48 24.427 12.907 33.493 5.227 5.653 11.84 10.133 19.627 13.333v19.093c0 11.733 9.6 21.333 21.333 21.333s21.333-9.6 21.333-21.333v-13.12c17.28-0.96 28.8-5.547 37.013-9.6l2.453-1.173-0.747-2.56-7.787-26.027-1.067-3.733-3.413 1.813-0.107 0.107c-6.827 3.52-18.347 9.493-36.693 9.493-21.867 0-23.573-12.693-23.573-16.533 0-9.173 8.107-15.36 32.213-24.533 33.387-12.587 47.68-29.227 47.68-55.573 0-12.907-4.48-24.747-13.013-34.133-7.040-7.68-16.427-13.333-27.733-16.64l-44.267 30.933c5.12-1.067 10.88-1.813 16.96-1.813 16-0.213 26.773 7.253 26.773 18.347zM612.373 781.547c-3.413 2.24-7.040 4.267-10.56 6.187 18.773 86.293 95.573 150.933 187.52 150.933 106.027 0 192-85.973 192-192 0-67.627-34.987-127.147-87.893-161.28l-38.72 26.987c14.72 7.147 28.267 16.853 40.107 28.693 28.16 28.16 43.733 65.707 43.733 105.6s-15.573 77.44-43.733 105.6c-28.16 28.16-65.707 43.733-105.6 43.733s-77.44-15.573-105.6-43.733c-24.64-24.64-39.573-56.32-42.987-90.453l-28.267 19.733z" />
<glyph unicode="&#xe933;" glyph-name="itaufonts_consorcio" d="M610.133 315.2c0-47.040-24.533-102.080-93.333-115.627l-0.427-0.107c-1.387-0.213-2.773-0.32-4.373-0.427v-49.707c0-11.733-9.6-21.333-21.333-21.333v0c-11.733 0-21.333 9.6-21.333 21.333v48.853c-34.133 2.347-70.080 14.293-90.987 30.4l-8.32 6.4 24.32 42.88 11.093-8.64c19.733-15.36 48.853-24.853 76.053-24.853 23.040 0 42.667 6.827 56.747 19.84 13.333 12.267 20.587 29.44 20.587 48.32 0 17.067-5.227 31.467-15.787 44.053-11.413 13.44-29.227 25.493-54.613 36.8-37.013 16.107-61.013 30.507-77.76 46.72-20.8 20.267-30.933 44.16-30.933 73.067 0 26.773 8.96 51.307 25.92 70.72 16 18.347 37.867 30.933 63.68 36.693v40.533c0 11.733 9.6 21.333 21.333 21.333s21.333-9.6 21.333-21.333v-38.4c1.387-0.107 2.773-0.213 4.16-0.32 29.76-2.027 54.507-9.92 75.627-24.107l9.28-6.293-24.32-42.88-10.88 7.573c-10.773 7.467-33.92 20.053-67.947 20.053-21.76 0-39.68-6.507-51.733-18.88-10.027-10.347-15.893-24.64-15.893-39.467 0-17.707 5.013-30.187 16.853-41.6 11.307-10.88 28.48-20.907 59.52-34.667l0.107-0.107c36.693-16.96 61.44-34.133 77.973-54.080v0c17.067-20.267 25.387-44.16 25.387-72.747zM896 405.334c0-223.893-181.44-405.333-405.333-405.333s-405.333 181.44-405.333 405.333 181.44 405.333 405.333 405.333 405.333-181.44 405.333-405.333zM850.987 405.334c0 198.933-161.28 360.32-360.32 360.32s-360.32-161.387-360.32-360.32 161.387-360.32 360.32-360.32 360.32 161.387 360.32 360.32z" />
<glyph unicode="&#xe934;" glyph-name="itaufonts_conta_corrente" d="M128 554.667v-384c0-70.72 57.28-128 128-128h512c70.72 0 128 57.28 128 128v298.667c0 70.72-57.28 128-128 128h-597.333c-23.573 0-42.667-19.093-42.667-42.667zM768 85.334h-512c-47.147 0-85.333 38.187-85.333 85.333v384h597.333c47.147 0 85.333-38.187 85.333-85.333v-298.667c0-47.147-38.187-85.333-85.333-85.333zM128 710.827v0c0-39.040 31.68-70.827 70.827-70.827h483.84c23.573 0 42.667 19.093 42.667 42.667v107.733c0 54.293-50.133 94.827-103.253 83.413l-438.187-93.867c-32.533-6.933-55.893-35.84-55.893-69.12zM682.667 682.667h-488.427c-13.013 0-23.573 10.56-23.573 23.573v0c0 11.093 7.787 20.693 18.667 23.040l441.707 95.68c26.56 5.76 51.733-14.507 51.733-41.707v-100.587zM682.667 426.667c-47.147 0-85.333-38.187-85.333-85.333s38.187-85.333 85.333-85.333 85.333 38.187 85.333 85.333-38.187 85.333-85.333 85.333zM682.667 298.667c-23.573 0-42.667 19.093-42.667 42.667s19.093 42.667 42.667 42.667 42.667-19.093 42.667-42.667-19.093-42.667-42.667-42.667z" />
<glyph unicode="&#xe935;" glyph-name="itaufonts_contatos" d="M85.333 618.667c0 11.733 9.6 21.333 21.333 21.333h170.667c11.733 0 21.333-9.6 21.333-21.333s-9.6-21.333-21.333-21.333h-170.667c-11.733 0-21.333 9.6-21.333 21.333zM106.667 384h170.667c11.733 0 21.333 9.6 21.333 21.333s-9.6 21.333-21.333 21.333h-170.667c-11.733 0-21.333-9.6-21.333-21.333s9.6-21.333 21.333-21.333zM213.333 170.667h64c11.733 0 21.333 9.6 21.333 21.333s-9.6 21.333-21.333 21.333h-170.667c-11.733 0-21.333-9.6-21.333-21.333s9.6-21.333 21.333-21.333h106.667zM853.333 810.667h-640c-23.467 0-42.667-19.2-42.667-42.667v-85.333h42.667v85.227c0 0 0 0.107 0.107 0.107h639.893c0 0 0.107 0 0.107-0.107v-725.227c0 0 0-0.107-0.107-0.107h-639.893c0 0-0.107 0-0.107 0.107v85.333h-42.667v-85.333c0-23.467 19.2-42.667 42.667-42.667h640c23.467 0 42.667 19.2 42.667 42.667v725.333c0 23.467-19.2 42.667-42.667 42.667zM213.333 256v85.333h-42.667v-85.333h42.667zM213.333 469.334v85.333h-42.667v-85.333h42.667zM554.667 384h42.667c94.293 0 170.667-76.373 170.667-170.667v0c0-23.573-19.093-42.667-42.667-42.667h-298.667c-23.573 0-42.667 19.093-42.667 42.667v0c0 94.293 76.373 170.667 170.667 170.667zM464.107 303.894c-24.107-24.213-37.44-56.32-37.44-90.56v0h298.667c0 34.24-13.333 66.347-37.44 90.56s-56.32 37.44-90.56 37.44h-42.667c-34.24 0-66.347-13.333-90.56-37.44zM576 426.667c-58.88 0-106.667 47.787-106.667 106.667s47.787 106.667 106.667 106.667 106.667-47.787 106.667-106.667-47.787-106.667-106.667-106.667zM576 469.334c35.307 0 64 28.693 64 64s-28.693 64-64 64-64-28.693-64-64 28.693-64 64-64z" />
<glyph unicode="&#xe936;" glyph-name="itaufonts_contin_negocios" d="M920.213 709.974c-11.84 27.947-28.693 53.013-50.24 74.56s-46.613 38.4-74.56 50.24c-29.013 12.373-59.733 18.56-91.413 18.56s-62.4-6.187-91.307-18.453c-27.947-11.84-53.013-28.693-74.56-50.24s-38.4-46.613-50.24-74.56c-12.267-28.907-18.453-59.733-18.453-91.307s6.187-62.4 18.453-91.307c0.427-1.067 0.853-2.027 1.387-3.093-6.080 3.093-12.267 5.973-18.56 8.64-34.347 14.293-70.613 21.653-108.053 21.653s-73.707-7.36-107.947-21.76c-33.067-13.973-62.72-33.92-88.107-59.413-25.493-25.493-45.44-55.147-59.413-88.107-12.16-28.693-19.2-58.88-21.227-89.92 8.533 2.133 17.387 3.307 26.56 3.307 5.44 0 10.987-0.427 16.427-1.28 10.133 120.107 110.827 214.507 233.707 214.507 129.6 0 234.667-105.067 234.667-234.667 0-38.4-9.28-74.667-25.6-106.667-0.107-0.32-0.32-0.64-0.427-0.853-0.64-1.173-1.28-2.347-1.92-3.52-0.32-0.533-0.533-1.067-0.853-1.6-0.64-1.067-1.173-2.133-1.813-3.307-0.213-0.427-0.427-0.747-0.64-1.173-0.747-1.387-1.6-2.773-2.453-4.053-0.32-0.427-0.533-0.96-0.853-1.387-0.64-0.96-1.28-2.027-1.813-2.987-0.32-0.427-0.533-0.96-0.853-1.387-0.853-1.28-1.707-2.667-2.56-3.947-0.213-0.427-0.533-0.747-0.747-1.173-0.64-0.96-1.387-2.027-2.027-2.987-0.32-0.427-0.64-0.96-0.96-1.387-0.853-1.173-1.707-2.347-2.453-3.413-0.213-0.32-0.427-0.64-0.747-0.96-0.853-1.173-1.707-2.347-2.667-3.413-0.32-0.427-0.747-0.853-1.067-1.387-0.747-0.96-1.493-1.92-2.24-2.88-0.32-0.32-0.64-0.747-0.853-1.067-0.96-1.173-2.027-2.453-3.093-3.627-0.32-0.427-0.64-0.747-1.067-1.173-0.747-0.853-1.6-1.813-2.347-2.667-0.32-0.427-0.747-0.853-1.067-1.173-1.067-1.173-2.133-2.347-3.2-3.52-0.32-0.32-0.533-0.533-0.853-0.853-0.853-0.96-1.813-1.813-2.667-2.773-0.427-0.427-0.747-0.747-1.173-1.173-0.96-0.96-1.92-1.92-2.88-2.88-0.213-0.213-0.427-0.427-0.64-0.64-1.173-1.067-2.347-2.24-3.52-3.307-0.427-0.32-0.747-0.747-1.173-1.067-0.96-0.853-1.813-1.6-2.773-2.453-0.32-0.32-0.747-0.64-1.067-0.96-1.173-1.067-2.453-2.027-3.627-3.093-0.32-0.32-0.747-0.64-1.067-0.853-0.96-0.747-1.92-1.6-2.88-2.347-0.427-0.32-0.853-0.64-1.28-0.96-1.28-0.96-2.56-2.027-3.84-2.987-0.213-0.107-0.427-0.32-0.64-0.427-1.173-0.853-2.24-1.707-3.413-2.453-0.427-0.32-0.853-0.64-1.28-0.96-1.067-0.747-2.24-1.493-3.307-2.24-0.32-0.213-0.533-0.427-0.853-0.64-1.387-0.96-2.667-1.813-4.053-2.667-0.427-0.213-0.853-0.533-1.28-0.747-1.067-0.64-2.133-1.387-3.2-2.027-0.427-0.213-0.747-0.533-1.173-0.747-1.387-0.853-2.773-1.707-4.267-2.453-0.32-0.213-0.64-0.32-0.96-0.533-1.173-0.64-2.347-1.28-3.52-1.92-0.427-0.213-0.853-0.533-1.28-0.747-1.387-0.747-2.773-1.493-4.267-2.24-0.107-0.107-0.213-0.107-0.32-0.213-1.387-0.747-2.88-1.493-4.373-2.133-0.427-0.213-0.853-0.427-1.387-0.64-1.173-0.533-2.453-1.173-3.627-1.707-0.32-0.107-0.64-0.32-0.96-0.427-1.493-0.64-2.987-1.387-4.587-2.027-0.427-0.213-0.853-0.32-1.173-0.533-1.173-0.533-2.453-0.96-3.627-1.493-0.427-0.213-0.853-0.32-1.28-0.533-1.6-0.64-3.093-1.173-4.693-1.813-0.213-0.107-0.533-0.213-0.853-0.32-1.387-0.533-2.667-0.96-4.053-1.387-0.427-0.107-0.96-0.32-1.387-0.427-1.493-0.533-2.88-0.96-4.373-1.387-0.213-0.107-0.32-0.107-0.533-0.213-1.6-0.533-3.2-0.96-4.907-1.493-0.427-0.107-0.96-0.213-1.387-0.427-1.28-0.32-2.667-0.747-3.947-1.067-0.427-0.107-0.747-0.213-1.173-0.32-1.6-0.427-3.307-0.853-5.013-1.173-0.427-0.107-0.747-0.213-1.173-0.213-1.387-0.32-2.667-0.64-4.053-0.853-0.427-0.107-0.96-0.213-1.387-0.32-1.707-0.32-3.413-0.64-5.12-0.96-0.213 0-0.32-0.107-0.533-0.107-1.6-0.32-3.093-0.533-4.693-0.747-0.533-0.107-0.96-0.107-1.493-0.213-1.493-0.213-2.987-0.427-4.48-0.64-0.32 0-0.533-0.107-0.853-0.107-1.707-0.213-3.52-0.427-5.227-0.64-0.427 0-0.853-0.107-1.387-0.107-1.387-0.107-2.773-0.213-4.267-0.427-0.427 0-0.853-0.107-1.28-0.107-1.707-0.107-3.52-0.213-5.333-0.32-0.32 0-0.64 0-1.067 0-1.493-0.107-2.987-0.107-4.48-0.213-0.533 0-0.96 0-1.493 0-1.813 0-3.627-0.107-5.44-0.107-1.92 0-3.947 0-5.867 0.107-0.427 0-0.853 0-1.28 0-2.027 0.107-3.947 0.107-5.867 0.213 0 0 0 0-0.107 0-2.027 0.107-4.053 0.213-6.080 0.427-0.213 0-0.427 0-0.64 0-10.667 0.853-21.12 2.453-31.36 4.8 0 0 0 0 0 0-64 14.187-118.187 54.613-150.72 109.333l111.36-28.907c11.413-2.88 23.040 4.053 25.92 15.573 2.88 11.413-4.053 23.040-15.573 25.92l-164.907 42.667c-11.413 2.88-23.040-4.053-25.92-15.573l-48.427-170.667c-2.88-11.413 4.053-23.040 15.573-25.92 1.707-0.427 3.52-0.64 5.227-0.64 9.6 0 18.24 6.507 20.693 16.213l36.16 125.227c12.373-21.973 27.627-42.133 45.653-60.16 8.533-8.533 17.6-16.533 27.093-23.787 0.64-0.533 1.28-0.96 1.92-1.493 0.853-0.64 1.813-1.387 2.667-2.027 0.64-0.533 1.387-0.96 2.027-1.493 1.067-0.747 2.24-1.6 3.307-2.347 1.173-0.853 2.347-1.6 3.52-2.453 0.853-0.533 1.6-1.067 2.453-1.6s1.707-1.067 2.56-1.6c0.747-0.533 1.6-1.067 2.453-1.493 0.96-0.64 1.92-1.28 2.987-1.813 0.64-0.427 1.28-0.853 2.027-1.173 1.6-0.96 3.093-1.92 4.693-2.773 0.64-0.427 1.28-0.747 2.027-1.173 1.067-0.64 2.24-1.28 3.307-1.813 0.64-0.32 1.28-0.747 1.92-1.067 1.387-0.747 2.88-1.493 4.267-2.24 0.32-0.213 0.64-0.32 0.96-0.533 1.707-0.853 3.52-1.707 5.227-2.56 0.533-0.213 1.067-0.533 1.6-0.747 1.28-0.64 2.667-1.28 4.053-1.92 0.533-0.213 1.067-0.533 1.6-0.747 1.813-0.853 3.627-1.6 5.547-2.453 34.24-14.613 70.507-21.973 107.947-21.973s73.707 7.36 107.947 21.76c33.067 13.973 62.72 33.92 88.107 59.413 25.493 25.493 45.44 55.147 59.413 88.107 0.213 0.427 0.32 0.853 0.533 1.28 14.080 33.813 21.333 69.76 21.333 106.667 0 37.44-7.36 73.707-21.76 107.947-2.667 6.293-5.547 12.48-8.64 18.56 1.067-0.427 2.027-0.96 3.093-1.387 28.907-12.267 59.733-18.453 91.307-18.453s62.4 6.187 91.307 18.453c27.947 11.84 53.013 28.693 74.56 50.24s38.4 46.613 50.24 74.56c12.267 28.907 18.453 59.733 18.453 91.307s-6.080 62.613-18.347 91.52zM704 426.667c-106.027 0-192 85.973-192 192s85.973 192 192 192 192-85.973 192-192-85.973-192-192-192z" />
<glyph unicode="&#xe937;" glyph-name="itaufonts_craques" d="M213.333 512c47.040 0 85.333 38.293 85.333 85.333s-38.293 85.333-85.333 85.333-85.333-38.293-85.333-85.333 38.293-85.333 85.333-85.333zM213.333 640c23.573 0 42.667-19.093 42.667-42.667s-19.093-42.667-42.667-42.667-42.667 19.093-42.667 42.667 19.093 42.667 42.667 42.667zM512 512c47.040 0 85.333 38.293 85.333 85.333s-38.293 85.333-85.333 85.333-85.333-38.293-85.333-85.333 38.293-85.333 85.333-85.333zM512 640c23.573 0 42.667-19.093 42.667-42.667s-19.093-42.667-42.667-42.667-42.667 19.093-42.667 42.667 19.093 42.667 42.667 42.667zM810.667 512c47.040 0 85.333 38.293 85.333 85.333s-38.293 85.333-85.333 85.333-85.333-38.293-85.333-85.333 38.293-85.333 85.333-85.333zM810.667 640c23.573 0 42.667-19.093 42.667-42.667s-19.093-42.667-42.667-42.667-42.667 19.093-42.667 42.667 19.093 42.667 42.667 42.667zM940.16 192c0-11.733-9.6-21.333-21.333-21.333h-810.667c-11.733 0-21.333 9.6-21.333 21.333s9.6 21.333 21.333 21.333h810.667c11.733 0 21.333-9.6 21.333-21.333zM960 597.227c-10.667 0-19.627-7.893-21.12-18.56-3.947-27.52-18.24-53.013-38.507-72.853-23.573-23.147-55.36-36.267-88.32-36.587-34.667-0.32-67.307 13.013-91.733 37.44-19.52 19.52-32 44.267-36.053 71.040-1.707 11.2-11.413 19.413-22.827 19.413s-21.12-8.213-22.827-19.52c-4.16-27.2-16.853-52.267-36.907-71.893-23.573-23.147-55.36-36.267-88.32-36.587-34.667-0.32-67.307 13.013-91.733 37.44-19.52 19.52-32 44.267-36.053 71.040-1.707 11.2-11.413 19.413-22.827 19.413s-21.12-8.213-22.827-19.52c-4.16-27.2-16.853-52.267-36.907-71.893-23.573-23.147-55.36-36.267-88.32-36.587-34.667-0.32-67.307 13.013-91.733 37.44-19.733 19.733-33.707 44.907-37.653 72-1.493 10.56-10.453 18.453-21.12 18.453-12.907 0-22.933-11.413-21.12-24.107 7.147-50.347 36.8-93.653 78.293-119.893-21.653-15.467-35.84-40.853-35.84-69.333v-42.667c0-23.467 19.2-42.667 42.667-42.667h170.667c23.467 0 42.667 19.2 42.667 42.667v42.667c0 28.587-14.293 54.080-36.053 69.547 23.787 15.253 43.627 36.267 57.387 61.12 13.76-24.853 33.6-45.867 57.387-61.12-21.76-15.467-36.053-40.96-36.053-69.547v-42.667c0-23.467 19.2-42.667 42.667-42.667h170.667c23.467 0 42.667 19.2 42.667 42.667v42.667c0 28.587-14.293 54.080-36.053 69.547 23.787 15.253 43.627 36.267 57.387 61.12 13.76-24.853 33.6-45.867 57.387-61.12-21.76-15.467-36.053-40.96-36.053-69.547v-42.667c0-23.467 19.2-42.667 42.667-42.667h170.667c23.467 0 42.667 19.2 42.667 42.667v42.667c0 28.48-14.187 53.867-35.84 69.333 41.493 26.24 71.147 69.44 78.293 119.893 1.6 13.12-8.427 24.427-21.333 24.427zM298.667 341.334c0 0 0-0.107 0 0l-170.56-0.107c0 0-0.107 0-0.107 0.107v42.56c0 11.307 4.48 21.973 12.587 30.080s18.773 12.587 30.080 12.587h85.333c11.307 0 21.973-4.48 30.080-12.587s12.587-18.773 12.587-30.080v-42.56zM597.333 341.334c0 0 0-0.107 0 0l-170.56-0.107c0 0-0.107 0-0.107 0.107v42.56c0 11.307 4.48 21.973 12.587 30.080s18.773 12.587 30.080 12.587h85.333c11.307 0 21.973-4.48 30.080-12.587s12.587-18.773 12.587-30.080v-42.56zM896 341.334c0 0 0-0.107 0 0l-170.56-0.107c0 0-0.107 0-0.107 0.107v42.56c0 11.307 4.48 21.973 12.587 30.080s18.773 12.587 30.080 12.587h85.333c11.307 0 21.973-4.48 30.080-12.587s12.587-18.773 12.587-30.080v-42.56z" />
<glyph unicode="&#xe938;" glyph-name="itaufonts_credito_auto" d="M853.227 106.667c0-11.733-9.6-21.333-21.333-21.333h-64v-64c0-11.733-9.6-21.333-21.333-21.333s-21.333 9.6-21.333 21.333v64h-64c-11.733 0-21.333 9.6-21.333 21.333s9.6 21.333 21.333 21.333h64v64c0 11.733 9.6 21.333 21.333 21.333s21.333-9.6 21.333-21.333v-64h64c11.733 0 21.333-9.6 21.333-21.333zM1013.547-40.746c-7.147-13.12-17.493-24.107-30.080-31.893-13.44-8.32-29.013-12.693-45.013-12.693h-384c-16 0-31.573 4.373-45.013 12.693-12.587 7.787-22.933 18.773-30.080 31.893s-10.667 27.84-10.347 42.56c0.32 15.787 5.12 31.147 13.76 44.587l192 298.56c0 0.107 0.107 0.107 0.107 0.213 15.787 24.32 42.56 38.827 71.573 38.827s55.787-14.507 71.573-38.827c0-0.107 0.107-0.107 0.107-0.213l192-298.56c8.64-13.44 13.44-28.8 13.76-44.587 0.427-14.72-3.2-29.44-10.347-42.56zM974.4 23.254l-192 298.667c-8.427 12.907-22.080 19.413-35.733 19.413s-27.413-6.507-35.733-19.413l-192-298.667c-18.453-28.373 1.92-65.92 35.733-65.92h384c33.813 0 54.187 37.547 35.733 65.92zM298.667 341.334c-47.040 0-85.333-38.293-85.333-85.333s38.293-85.333 85.333-85.333 85.333 38.293 85.333 85.333-38.293 85.333-85.333 85.333zM298.667 384c70.72 0 128-57.28 128-128s-57.28-128-128-128-128 57.28-128 128 57.28 128 128 128v0zM616.427 663.574l108.907-108.907 166.187-61.76c28.907-14.507 47.147-44.053 47.147-76.373v-32.533c0-35.093-14.080-66.773-36.907-89.92l23.467-36.587c2.027 1.92 4.16 3.84 6.080 5.76 15.68 15.68 27.947 33.92 36.587 54.187 8.96 21.12 13.44 43.413 13.44 66.453v32.64c0 23.787-6.613 47.040-19.093 67.307s-30.4 36.587-51.627 47.147l-2.027 1.067-2.133 0.853-157.44 58.453-102.4 102.4c-10.027 10.027-21.76 17.92-34.987 23.36-13.12 5.44-26.987 8.213-41.173 8.213h-229.12c-20.587 0-42.24-6.827-64.427-20.373-17.493-10.667-35.093-25.493-50.88-42.773-15.467-16.96-28.587-35.627-38.080-54.187-9.6-18.773-15.253-36.8-16.853-53.653-20.48-1.493-38.613-7.787-53.12-18.453-21.013-15.68-32.64-39.253-32.64-66.56v-163.52c0-22.613 14.4-42.667 35.947-49.813l6.72-2.24c0 0.747 0 1.493 0 2.347 0 14.187 1.707 28.053 5.013 41.173-3.093 1.707-5.013 5.013-5.013 8.64v163.52c0 29.013 23.573 42.667 52.587 42.667h32.747v32.747c0 52.48 75.413 137.813 128 137.813h229.12c17.173 0 33.707-6.827 45.973-19.093zM555.627 238.294c-0.64 5.867-0.96 11.733-0.96 17.707h-85.333c0-14.72-1.92-29.013-5.333-42.667h75.627l16 24.96z" />
<glyph unicode="&#xe939;" glyph-name="itaufonts_credito_automatico" d="M426.667 256c0 23.573 19.093 42.667 42.667 42.667h85.333c12.267 0 23.36-5.227 31.147-13.44l-101.12-157.227h-15.36c-23.573 0-42.667 19.093-42.667 42.667v85.333zM682.667 512c-23.573 0-42.667-19.093-42.667-42.667v-85.333c0-4.16 0.64-8.213 1.707-11.947 24 34.24 62.827 54.613 104.853 54.613 22.933 0 44.907-6.080 64.107-17.173v59.84c0 23.573-19.093 42.667-42.667 42.667h-85.333zM746.667 640c11.733 0 21.333 9.6 21.333 21.333v170.667c0 11.733-9.6 21.333-21.333 21.333s-21.333-9.6-21.333-21.333v-170.667c0-11.733 9.6-21.333 21.333-21.333zM896 302.934l42.667-66.347v488.747c0 23.573-19.093 42.667-42.667 42.667h-85.333v-42.667h85.333v-422.4zM554.667 512h-85.333c-23.573 0-42.667-19.093-42.667-42.667v-85.333c0-23.573 19.093-42.667 42.667-42.667h85.333c23.573 0 42.667 19.093 42.667 42.667v85.333c0 23.573-19.093 42.667-42.667 42.667zM426.56 2.774c0.32 13.653 2.773 27.093 7.36 39.893h-305.92v682.667h85.333v42.667h-85.333c-23.573 0-42.667-19.093-42.667-42.667v-682.667c0-23.573 19.093-42.667 42.667-42.667h298.56c0 0.96 0 1.813 0 2.773zM341.333 298.667h-85.333c-23.573 0-42.667-19.093-42.667-42.667v-85.333c0-23.573 19.093-42.667 42.667-42.667h85.333c23.573 0 42.667 19.093 42.667 42.667v85.333c0 23.573-19.093 42.667-42.667 42.667zM682.667 768h-341.333v-42.667h341.333v42.667zM277.333 640c11.733 0 21.333 9.6 21.333 21.333v170.667c0 11.733-9.6 21.333-21.333 21.333s-21.333-9.6-21.333-21.333v-170.667c0-11.733 9.6-21.333 21.333-21.333zM213.333 384c0-23.573 19.093-42.667 42.667-42.667h85.333c23.573 0 42.667 19.093 42.667 42.667v85.333c0 23.573-19.093 42.667-42.667 42.667h-85.333c-23.573 0-42.667-19.093-42.667-42.667v-85.333zM832.107 128h-64v64c0 11.733-9.6 21.333-21.333 21.333v0c-11.733 0-21.333-9.6-21.333-21.333v-64h-64c-11.733 0-21.333-9.6-21.333-21.333s9.6-21.333 21.333-21.333h64v-64c0-11.733 9.6-21.333 21.333-21.333v0c11.733 0 21.333 9.6 21.333 21.333v64h64c11.733 0 21.333 9.6 21.333 21.333s-9.6 21.333-21.333 21.333zM1013.76-40.746c-7.147-13.12-17.493-24.107-30.080-31.893-13.44-8.32-29.013-12.693-45.013-12.693h-384c-16 0-31.573 4.373-45.013 12.693-12.587 7.787-22.933 18.773-30.080 31.893s-10.667 27.84-10.347 42.56c0.32 15.787 5.12 31.147 13.76 44.587l192 298.56c0 0.107 0.107 0.107 0.107 0.213 15.787 24.32 42.56 38.827 71.573 38.827s55.787-14.507 71.573-38.827c0-0.107 0.107-0.107 0.107-0.213l191.893-298.56c8.64-13.44 13.44-28.8 13.76-44.587 0.427-14.72-3.2-29.44-10.24-42.56zM974.507 23.254l-192 298.667c-8.427 12.907-22.080 19.413-35.733 19.413s-27.413-6.507-35.733-19.413l-192-298.667c-18.453-28.373 1.92-65.92 35.733-65.92h384c33.813 0 54.187 37.547 35.733 65.92z" />
<glyph unicode="&#xe93a;" glyph-name="itaufonts_credito_consignado" d="M469.333 104.107v706.56c0 23.573 19.093 42.667 42.667 42.667h341.333c23.573 0 42.667-19.093 42.667-42.667v-507.733l-42.027 65.387c-0.213 0.32-0.427 0.533-0.533 0.853v441.493h-341.44v-640.213l-42.667-66.347zM426.667 16.427l0.96 0.427c2.453 18.56 9.067 36.587 19.413 52.587l1.067 1.707-277.44 595.307 256 119.36v47.040l-274.027-127.787c-21.333-9.92-30.613-35.307-20.587-56.747l294.613-631.893zM442.133-61.013c-7.893 14.507-12.907 30.4-14.72 46.72l-342.080 124.48 98.133 269.547-25.493 54.72-112.747-309.76c-8.107-22.187 3.307-46.613 25.493-54.72l375.040-137.493c-1.28 2.24-2.453 4.267-3.627 6.507zM832.107 128h-64v64c0 11.733-9.6 21.333-21.333 21.333v0c-11.733 0-21.333-9.6-21.333-21.333v-64h-64c-11.733 0-21.333-9.6-21.333-21.333s9.6-21.333 21.333-21.333h64v-64c0-11.733 9.6-21.333 21.333-21.333v0c11.733 0 21.333 9.6 21.333 21.333v64h64c11.733 0 21.333 9.6 21.333 21.333s-9.6 21.333-21.333 21.333zM1013.76-40.746c-7.147-13.12-17.493-24.107-30.080-31.893-13.44-8.32-29.013-12.693-45.013-12.693h-384c-16 0-31.573 4.373-45.013 12.693-12.587 7.787-22.933 18.773-30.080 31.893s-10.667 27.84-10.347 42.56c0.32 15.787 5.12 31.147 13.76 44.587l191.893 298.56c0 0.107 0.107 0.107 0.107 0.213 15.787 24.32 42.56 38.827 71.573 38.827s55.787-14.507 71.573-38.827c0-0.107 0.107-0.107 0.107-0.213l192-298.56c8.64-13.44 13.44-28.8 13.76-44.587 0.427-14.72-3.2-29.44-10.24-42.56zM974.507 23.254l-192 298.667c-8.427 12.907-22.080 19.413-35.733 19.413s-27.413-6.507-35.733-19.413l-192-298.667c-18.453-28.373 1.92-65.92 35.733-65.92h384c33.813 0 54.187 37.547 35.733 65.92z" />
<glyph unicode="&#xe93b;" glyph-name="itaufonts_credito_imobiliario" d="M853.227 106.667c0-11.733-9.6-21.333-21.333-21.333h-64v-64c0-11.733-9.6-21.333-21.333-21.333s-21.333 9.6-21.333 21.333v64h-64c-11.733 0-21.333 9.6-21.333 21.333s9.6 21.333 21.333 21.333h64v64c0 11.733 9.6 21.333 21.333 21.333s21.333-9.6 21.333-21.333v-64h64c11.733 0 21.333-9.6 21.333-21.333zM1013.547-40.746c-7.147-13.12-17.493-24.107-30.080-31.893-13.44-8.32-29.013-12.693-45.013-12.693h-384c-16 0-31.573 4.373-45.013 12.693-12.587 7.787-22.933 18.773-30.080 31.893s-10.667 27.84-10.347 42.56c0.32 15.787 5.12 31.147 13.76 44.587l192 298.56c0 0.107 0.107 0.107 0.107 0.213 15.787 24.32 42.56 38.827 71.573 38.827s55.787-14.507 71.573-38.827c0-0.107 0.107-0.107 0.107-0.213l192-298.56c8.64-13.44 13.44-28.8 13.76-44.587 0.427-14.72-3.2-29.44-10.347-42.56zM974.4 23.254l-192 298.667c-8.427 12.907-22.080 19.413-35.733 19.413s-27.413-6.507-35.733-19.413l-192-298.667c-18.453-28.373 1.92-65.92 35.733-65.92h384c33.813 0 54.187 37.547 35.733 65.92zM928.533 551.36l-339.413 236.907c-47.040 29.973-107.84 29.973-154.88 0l-339.307-236.907c-9.92-6.293-12.907-19.52-6.507-29.44s19.52-12.907 29.44-6.507l339.307 236.907c33.173 21.12 75.947 21.12 109.013 0l339.413-237.013c6.613-4.373 20.907-5.333 29.44 6.507 6.933 9.6 3.413 23.147-6.507 29.547zM447.147 69.547l10.133 15.787h-30.827v213.333h168l23.787 37.013c-6.187 3.627-13.44 5.653-21.12 5.653h-170.667c-23.573 0-42.667-19.093-42.667-42.667v-213.333h-85.333c-47.147 0-85.333 38.187-85.333 85.333v283.093l244.16 170.453c33.173 21.12 75.947 21.12 109.013 0l244.16-170.453v-44.16c16.853-9.707 31.467-23.253 42.667-40v106.347l-264 184.32c-47.040 29.973-107.84 29.973-154.88 0l-263.787-184.213v-305.387c0-70.72 57.28-128 128-128h135.467c3.307 9.387 7.68 18.347 13.227 26.88z" />
<glyph unicode="&#xe93c;" glyph-name="itaufonts_credito_sob_medida" d="M256 682.667h-85.333c-23.467 0-42.667 19.2-42.667 42.667v85.333c0 23.467 19.2 42.667 42.667 42.667h85.333c23.467 0 42.667-19.2 42.667-42.667v-85.333c0-23.467-19.2-42.667-42.667-42.667zM768 746.667v-42.667c0-11.733 9.6-21.333 21.333-21.333h42.667c11.733 0 21.333 9.6 21.333 21.333v42.667c0 11.733-9.6 21.333-21.333 21.333h-42.667c-11.733 0-21.333-9.6-21.333-21.333zM640 746.667v-42.667c0-11.733 9.6-21.333 21.333-21.333h42.667c11.733 0 21.333 9.6 21.333 21.333v42.667c0 11.733-9.6 21.333-21.333 21.333h-42.667c-11.733 0-21.333-9.6-21.333-21.333zM896 576v0c0 11.733-9.6 21.333-21.333 21.333h-768c-11.733 0-21.333-9.6-21.333-21.333v0c0-11.733 9.6-21.333 21.333-21.333h768c11.733 0 21.333 9.6 21.333 21.333zM757.653 44.587c-7.147-13.12-17.493-24.107-30.080-31.893-13.333-8.32-28.907-12.693-44.907-12.693h-384c-16 0-31.573 4.373-45.013 12.693-12.587 7.787-22.933 18.773-30.080 31.893s-10.667 27.84-10.347 42.56c0.32 15.787 5.12 31.147 13.76 44.587l192 298.56c0 0.107 0.107 0.107 0.107 0.213 15.787 24.32 42.56 38.827 71.573 38.827s55.787-14.507 71.573-38.827c0-0.107 0.107-0.107 0.107-0.213l192-298.56c8.64-13.44 13.44-28.8 13.76-44.48 0.213-14.827-3.307-29.547-10.453-42.667zM718.4 108.587l-192 298.667c-8.427 12.907-22.080 19.413-35.733 19.413s-27.413-6.507-35.733-19.413l-192-298.667c-18.453-28.373 1.92-65.92 35.733-65.92h384c33.813 0 54.187 37.547 35.733 65.92zM576 213.334h-64v64c0 11.733-9.6 21.333-21.333 21.333s-21.333-9.6-21.333-21.333v-64h-64c-11.733 0-21.333-9.6-21.333-21.333s9.6-21.333 21.333-21.333h64v-64c0-11.733 9.6-21.333 21.333-21.333s21.333 9.6 21.333 21.333v64h64c11.733 0 21.333 9.6 21.333 21.333s-9.6 21.333-21.333 21.333z" />
</font>
</defs>
</svg>
